<?xml version="1.0" encoding="UTF-8"?>
<svg version="1.1" xmlns="http://www.w3.org/2000/svg" width="500" height="500">
<path d="M0 0 C165 0 330 0 500 0 C500 165 500 330 500 500 C335 500 170 500 0 500 C0 335 0 170 0 0 Z " fill="#FEFEFE" transform="translate(0,0)"/>
<path d="M0 0 C3.73621808 -0.00983992 7.47191487 -0.04103392 11.20800781 -0.07226562 C13.60644211 -0.07878577 16.00488025 -0.0840401 18.40332031 -0.08789062 C19.50862091 -0.10023743 20.61392151 -0.11258423 21.75271606 -0.12530518 C28.11929541 -0.1069763 32.77007776 0.62643853 38.58300781 3.24023438 C39.63488281 3.59085938 40.68675781 3.94148437 41.77050781 4.30273438 C46.1372359 7.31092483 47.96838691 11.25657765 49.58300781 16.24023438 C49.94609993 19.6275621 49.90737522 22.85239696 49.58300781 26.24023438 C50.82050781 26.11648437 50.82050781 26.11648437 52.08300781 25.99023438 C56.50396408 26.30601697 60.01416181 27.58452594 63.58300781 30.24023438 C68.10845011 35.97382643 66.77867738 42.26135296 66.58300781 49.24023438 C71.20300781 49.24023438 75.82300781 49.24023438 80.58300781 49.24023438 C80.00550781 47.90347656 79.42800781 46.56671875 78.83300781 45.18945312 C78.08272528 43.43566772 77.33274073 41.68175481 76.58300781 39.92773438 C76.20144531 39.04666016 75.81988281 38.16558594 75.42675781 37.2578125 C75.06582031 36.41025391 74.70488281 35.56269531 74.33300781 34.68945312 C73.99785156 33.90916748 73.66269531 33.12888184 73.31738281 32.32495117 C72.58300781 30.24023438 72.58300781 30.24023438 72.58300781 27.24023438 C76.21300781 27.24023438 79.84300781 27.24023438 83.58300781 27.24023438 C84.68779318 30.07332781 85.79185111 32.90670127 86.89550781 35.74023438 C87.20423828 36.53171875 87.51296875 37.32320312 87.83105469 38.13867188 C89.78571722 43.15906828 91.70148389 48.19196095 93.58300781 53.24023438 C93.77934814 52.6657959 93.97568848 52.09135742 94.17797852 51.49951172 C95.07950141 48.86991541 95.98744748 46.24257995 96.89550781 43.61523438 C97.20423828 42.71160156 97.51296875 41.80796875 97.83105469 40.87695312 C99.47296752 36.14133084 101.20082669 31.65276679 103.58300781 27.24023438 C107.21300781 27.24023438 110.84300781 27.24023438 114.58300781 27.24023438 C112.89443761 32.54365632 110.80916588 37.65107962 108.61816406 42.76171875 C107.13235 46.3591454 106.00663423 49.33756026 106.58300781 53.24023438 C108.87451859 55.86518219 108.87451859 55.86518219 111.58300781 58.24023438 C115.75747599 63.1601433 115.72690442 67.56759743 115.68066406 73.84960938 C115.67854164 74.93982391 115.67854164 74.93982391 115.67637634 76.05206299 C115.67079573 78.36482931 115.65824685 80.67749749 115.64550781 82.99023438 C115.6404903 84.56184756 115.63592783 86.13346226 115.63183594 87.70507812 C115.62083266 91.55016781 115.60358142 95.39518447 115.58300781 99.24023438 C117.89300781 99.24023438 120.20300781 99.24023438 122.58300781 99.24023438 C122.91300781 99.90023437 123.24300781 100.56023437 123.58300781 101.24023438 C124.57300781 100.58023438 125.56300781 99.92023438 126.58300781 99.24023438 C128.70410156 98.90429688 128.70410156 98.90429688 131.02050781 98.86523438 C131.78234375 98.836875 132.54417969 98.80851562 133.32910156 98.77929688 C135.58300781 99.24023438 135.58300781 99.24023438 137.85253906 100.56054688 C140.66501773 104.91576215 139.99985095 109.43360383 139.83300781 114.49023438 C139.81496094 115.52148438 139.79691406 116.55273438 139.77832031 117.61523438 C139.73123493 120.15784502 139.66548831 122.69856599 139.58300781 125.24023438 C137.27300781 125.24023438 134.96300781 125.24023438 132.58300781 125.24023438 C132.25300781 118.64023437 131.92300781 112.04023438 131.58300781 105.24023438 C129.60300781 105.24023438 127.62300781 105.24023438 125.58300781 105.24023438 C123.60735162 108.20371867 123.31923922 108.9204381 123.16894531 112.25195312 C123.1109375 113.38793945 123.1109375 113.38793945 123.05175781 114.546875 C123.00535156 115.72540039 123.00535156 115.72540039 122.95800781 116.92773438 C122.9 118.12366211 122.9 118.12366211 122.84082031 119.34375 C122.74668287 121.30886912 122.66376149 123.27451978 122.58300781 125.24023438 C120.27300781 125.24023438 117.96300781 125.24023438 115.58300781 125.24023438 C115.25300781 122.27023437 114.92300781 119.30023438 114.58300781 116.24023438 C113.88175781 117.47773438 113.18050781 118.71523438 112.45800781 119.99023438 C108.03595512 127.00110783 103.72379057 128.20503869 95.58300781 130.24023438 C95.58300781 136.84023438 95.58300781 143.44023437 95.58300781 150.24023438 C89.94929293 144.60651949 89.94929293 144.60651949 88.12597656 141.97851562 C87.73603516 141.41712891 87.34609375 140.85574219 86.94433594 140.27734375 C86.55697266 139.70822266 86.16960937 139.13910156 85.77050781 138.55273438 C85.36380859 137.97201172 84.95710937 137.39128906 84.53808594 136.79296875 C81.58300781 132.4969308 81.58300781 132.4969308 81.58300781 130.24023438 C80.06870178 130.25355804 80.06870178 130.25355804 78.52380371 130.26715088 C68.99029767 130.34838587 59.45686224 130.40827124 49.92308807 130.44748306 C45.02214586 130.46832033 40.12148401 130.49656722 35.22070312 130.54199219 C30.48742432 130.58558793 25.75441447 130.60940051 21.02095032 130.61974335 C19.21889515 130.62711013 17.416854 130.64149571 15.61491394 130.6631546 C13.08247553 130.6923717 10.55113565 130.69618284 8.01855469 130.69433594 C7.28055634 130.70871704 6.54255798 130.72309814 5.78219604 130.73791504 C-0.67913997 130.68722916 -5.83018357 128.54763161 -10.65917969 124.24023438 C-11.19800781 123.58023438 -11.73683594 122.92023438 -12.29199219 122.24023438 C-12.84628906 121.58023438 -13.40058594 120.92023438 -13.97167969 120.24023438 C-17.33757274 115.58256615 -17.69112301 111.88135088 -17.61230469 106.19335938 C-17.60947479 105.42215759 -17.6066449 104.65095581 -17.60372925 103.85638428 C-17.59256232 101.40084106 -17.56746448 98.94566677 -17.54199219 96.49023438 C-17.53195786 94.8222709 -17.5228328 93.1543017 -17.51464844 91.48632812 C-17.49263444 87.4041554 -17.45812885 83.32225738 -17.41699219 79.24023438 C-16.85259933 79.23658875 -16.28820648 79.23294312 -15.70671082 79.22918701 C-9.78429306 79.18708249 -3.86263027 79.11754535 2.05932617 79.03271484 C4.2636761 79.00464628 6.46812404 78.98336222 8.67260742 78.96923828 C11.85808992 78.94761247 15.04241136 78.90086233 18.22753906 78.84960938 C19.19883255 78.84838074 20.17012604 78.8471521 21.17085266 78.84588623 C28.84144523 78.68500292 36.91853525 77.51694145 42.82112122 72.23895264 C48.42509283 65.88169876 49.27318629 57.38854047 49.58300781 49.24023438 C51.56300781 49.24023438 53.54300781 49.24023438 55.58300781 49.24023438 C55.46910906 47.44782775 55.34153094 45.65628603 55.20800781 43.86523438 C55.10359375 42.36863281 55.10359375 42.36863281 54.99707031 40.84179688 C54.81936818 38.08514558 54.81936818 38.08514558 52.58300781 36.24023438 C47.66073151 35.68404723 47.66073151 35.68404723 43.39453125 37.85644531 C41.03674631 40.95906151 41.04403839 42.88355249 40.97363281 46.75585938 C40.94140625 48.00625 40.90917969 49.25664062 40.87597656 50.54492188 C40.86179687 51.846875 40.84761719 53.14882813 40.83300781 54.49023438 C40.78853516 56.46636719 40.78853516 56.46636719 40.74316406 58.48242188 C40.67245393 61.7350878 40.61975995 64.98703631 40.58300781 68.24023438 C36.95300781 68.24023438 33.32300781 68.24023438 29.58300781 68.24023438 C29.25300781 58.01023437 28.92300781 47.78023438 28.58300781 37.24023438 C27.92300781 38.23023438 27.26300781 39.22023437 26.58300781 40.24023438 C26.25300781 40.57023437 25.92300781 40.90023437 25.58300781 41.24023438 C25.61575443 43.5741749 25.68488661 45.90763503 25.77050781 48.24023438 C25.84779879 54.58484841 25.63864954 60.10094235 21.58300781 65.24023438 C15.21912216 70.6506859 9.73077473 72.62312048 1.43457031 72.51367188 C-4.62716203 71.93240987 -8.72205327 69.28822824 -12.79199219 64.86523438 C-17.22501447 59.19481021 -17.82844289 53.20989713 -18.41699219 46.24023438 C-19.40699219 46.57023437 -20.39699219 46.90023437 -21.41699219 47.24023438 C-22.30386719 46.78648437 -23.19074219 46.33273437 -24.10449219 45.86523438 C-28.05863619 43.92546562 -31.05634384 43.61615234 -35.41699219 43.24023438 C-35.41699219 44.56023437 -35.41699219 45.88023437 -35.41699219 47.24023438 C-36.07699219 47.24023438 -36.73699219 47.24023438 -37.41699219 47.24023438 C-37.31386719 48.00335938 -37.21074219 48.76648438 -37.10449219 49.55273438 C-37.41699219 52.24023438 -37.41699219 52.24023438 -39.22949219 54.05273438 C-44.84553828 56.14498684 -50.73326933 56.13480866 -56.41699219 54.24023438 C-61.6913773 48.96584926 -61.70359328 42.69675839 -61.79199219 35.67773438 C-61.80593018 34.95763184 -61.81986816 34.2375293 -61.83422852 33.49560547 C-61.77689515 26.98640712 -60.21504504 22.35294647 -55.91699219 17.30273438 C-52.25945067 14.54129053 -48.49339607 14.60052276 -44.04589844 14.81835938 C-40.31231452 15.41750806 -38.14897366 16.64835451 -35.41699219 19.24023438 C-34.75699219 20.89023438 -34.09699219 22.54023438 -33.41699219 24.24023438 C-29.45699219 23.58023438 -25.49699219 22.92023438 -21.41699219 22.24023438 C-23.35453748 15.62978575 -25.75696805 12.18179336 -31.41699219 8.24023438 C-32.07699219 7.91023437 -32.73699219 7.58023438 -33.41699219 7.24023438 C-33.41699219 5.92023438 -33.41699219 4.60023438 -33.41699219 3.24023438 C-36.05699219 3.24023438 -38.69699219 3.24023438 -41.41699219 3.24023438 C-41.74699219 2.58023438 -42.07699219 1.92023438 -42.41699219 1.24023438 C-28.28110714 0.23370505 -14.1689233 0.02259196 0 0 Z " fill="#FC7704" transform="translate(166.4169921875,213.759765625)"/>
<path d="M0 0 C0.81563416 -0.00860046 1.63126831 -0.01720093 2.47161865 -0.02606201 C3.35789948 -0.03032196 4.2441803 -0.03458191 5.15731812 -0.03897095 C6.09768921 -0.04714844 7.0380603 -0.05532593 8.00692749 -0.06375122 C11.1187375 -0.08856003 14.23050195 -0.10511154 17.34237671 -0.11953735 C18.93993868 -0.12752287 18.93993868 -0.12752287 20.56977463 -0.13566971 C26.20930003 -0.16238424 31.84880344 -0.18176286 37.4883728 -0.19619751 C42.14612518 -0.20952488 46.80343824 -0.23735836 51.46102905 -0.27822876 C57.09373586 -0.32765136 62.72604484 -0.35233064 68.3589592 -0.35942459 C70.49987506 -0.36612047 72.64078263 -0.38129891 74.78157425 -0.4053154 C97.01601028 -0.64048205 97.01601028 -0.64048205 103.86581421 5.15390015 C104.36081421 6.14390015 104.36081421 6.14390015 104.86581421 7.15390015 C103.54581421 7.15390015 102.22581421 7.15390015 100.86581421 7.15390015 C100.86581421 6.49390015 100.86581421 5.83390015 100.86581421 5.15390015 C94.04307297 3.07625012 87.75470365 2.877381 80.65097046 2.9234314 C79.48182602 2.92388962 78.31268158 2.92434784 77.10810852 2.92481995 C74.63792911 2.92783232 72.16775143 2.93568812 69.69760132 2.9480896 C65.97170037 2.96618938 62.24605117 2.96859997 58.52011108 2.96835327 C45.9358551 2.98761408 33.41511492 3.17942581 20.86581421 4.15390015 C23.50581421 4.48390015 26.14581421 4.81390015 28.86581421 5.15390015 C28.86581421 6.47390015 28.86581421 7.79390015 28.86581421 9.15390015 C29.56706421 9.33952515 30.26831421 9.52515015 30.99081421 9.71640015 C34.97389844 11.70794226 37.44821194 14.4351043 39.86581421 18.15390015 C40.74081421 21.59140015 40.74081421 21.59140015 40.86581421 24.15390015 C39.45403591 24.68784194 38.03611176 25.20555119 36.61581421 25.71640015 C35.82690796 26.00643921 35.03800171 26.29647827 34.22518921 26.5953064 C31.64301326 27.20664938 30.30301742 27.17525582 27.86581421 26.15390015 C27.55643921 25.37015015 27.24706421 24.58640015 26.92831421 23.77890015 C26.044582 21.06645238 26.044582 21.06645238 23.92831421 19.34140015 C19.23243699 17.52054979 14.8297766 17.3823752 9.86581421 18.15390015 C6.25842813 19.82213798 4.30354171 22.12750464 2.73300171 25.81015015 C1.69731127 29.8036232 1.52242511 33.4220133 1.55331421 37.52890015 C1.55750366 38.28114868 1.56169312 39.03339722 1.56600952 39.80844116 C1.67575393 45.18299854 2.15370724 49.40771295 4.86581421 54.15390015 C8.00684436 56.24560385 10.64208207 56.42436021 14.36581421 56.40390015 C15.77347046 56.41163452 15.77347046 56.41163452 17.20956421 56.41952515 C19.94901196 56.14558037 21.59033419 55.68828347 23.86581421 54.15390015 C24.67752649 51.59870093 24.67752649 51.59870093 24.86581421 49.15390015 C25.52581421 49.15390015 26.18581421 49.15390015 26.86581421 49.15390015 C26.86581421 47.83390015 26.86581421 46.51390015 26.86581421 45.15390015 C32.59895777 44.85735824 35.76911167 45.24149869 40.86581421 48.15390015 C41.52581421 48.15390015 42.18581421 48.15390015 42.86581421 48.15390015 C43.52581421 46.83390015 44.18581421 45.51390015 44.86581421 44.15390015 C44.89159546 44.98792358 44.91737671 45.82194702 44.94393921 46.6812439 C45.33630232 54.46608463 45.89324861 61.71204795 51.28768921 67.7437439 C56.67021469 72.52975238 61.94658144 73.68019437 68.94393921 73.52890015 C74.47540034 72.81898 79.72210338 70.7456352 83.34237671 66.3687439 C85.72947959 62.32440772 86.99650037 58.58064844 86.96347046 53.9234314 C86.9602478 53.12098999 86.95702515 52.31854858 86.95370483 51.49179077 C86.94532593 50.65841187 86.93694702 49.82503296 86.92831421 48.96640015 C86.92380249 48.12141968 86.91929077 47.27643921 86.91464233 46.40585327 C86.90286824 44.3218386 86.88493311 42.23786038 86.86581421 40.15390015 C87.52581421 40.48390015 88.18581421 40.81390015 88.86581421 41.15390015 C90.08275297 38.72002262 90.18541317 36.73551169 90.42831421 34.02890015 C90.5539978 32.66378296 90.5539978 32.66378296 90.68222046 31.27108765 C90.7428064 30.57241577 90.80339233 29.8737439 90.86581421 29.15390015 C91.19581421 29.15390015 91.52581421 29.15390015 91.86581421 29.15390015 C91.86581421 42.68390015 91.86581421 56.21390015 91.86581421 70.15390015 C95.49581421 70.15390015 99.12581421 70.15390015 102.86581421 70.15390015 C102.83963013 69.3318811 102.81344604 68.50986206 102.78646851 67.66293335 C102.68239981 63.93095076 102.61745293 60.19927355 102.55331421 56.46640015 C102.51141968 55.17282593 102.46952515 53.87925171 102.42636108 52.54647827 C102.4102478 51.2993103 102.39413452 50.05214233 102.37753296 48.7671814 C102.35134888 47.6203186 102.32516479 46.47345581 102.29818726 45.2918396 C103.04405632 41.16854707 104.61304614 39.70916257 107.86581421 37.15390015 C113.70237931 36.34885668 113.70237931 36.34885668 116.56503296 38.3296814 C118.39033894 40.88949489 118.1629501 42.73504987 118.05331421 45.84140015 C118.01270874 47.33220093 118.01270874 47.33220093 117.97128296 48.8531189 C117.93647827 49.61237671 117.90167358 50.37163452 117.86581421 51.15390015 C115.88581421 51.15390015 113.90581421 51.15390015 111.86581421 51.15390015 C111.91222046 51.83194702 111.95862671 52.5099939 112.00643921 53.20858765 C112.30867133 61.00185872 111.41918717 67.79043179 106.35800171 74.00546265 C97.87205881 82.01777153 87.4201788 81.51360943 76.52828789 81.32006836 C73.94174778 81.27816859 71.35624987 81.26225143 68.76939392 81.25424194 C61.42134924 81.230474 54.07444859 81.18899928 46.72738647 81.06161499 C42.21656979 80.98527758 37.7081734 80.96284271 33.19676399 80.97488403 C31.48667173 80.96927125 29.77651789 80.94373974 28.06704521 80.89736938 C18.42879195 80.41587386 18.42879195 80.41587386 10.09191895 84.51791382 C8.02463802 87.31569273 6.41554022 90.04506918 4.86581421 93.15390015 C3.24554075 95.85415217 1.56642137 98.50295369 -0.13418579 101.15390015 C-0.79418579 101.15390015 -1.45418579 101.15390015 -2.13418579 101.15390015 C-2.13418579 94.22390015 -2.13418579 87.29390015 -2.13418579 80.15390015 C-4.11418579 80.15390015 -6.09418579 80.15390015 -8.13418579 80.15390015 C-13.94979848 77.14261315 -18.99868148 72.32720626 -21.2147522 66.13412476 C-22.48972485 61.42852642 -22.45843464 56.75571362 -22.47012329 51.9078064 C-22.47678009 50.9378624 -22.48343689 49.9679184 -22.49029541 48.96858215 C-22.50038118 46.92547491 -22.5051137 44.88233499 -22.50479126 42.83920288 C-22.50916756 39.72935351 -22.54553957 36.62092112 -22.58340454 33.51132202 C-22.58927309 31.51848829 -22.59324223 29.52564788 -22.59512329 27.5328064 C-22.60949432 26.61173599 -22.62386536 25.69066559 -22.63867188 24.74168396 C-22.58578849 17.19809786 -20.63935918 12.04448483 -15.69668579 6.34140015 C-10.72586676 2.09801805 -6.52005967 0.05146062 0 0 Z " fill="#FBC90A" transform="translate(104.13418579101563,211.84609985351563)"/>
<path d="M0 0 C3.73621808 -0.00983992 7.47191487 -0.04103392 11.20800781 -0.07226562 C13.60644211 -0.07878577 16.00488025 -0.0840401 18.40332031 -0.08789062 C19.50862091 -0.10023743 20.61392151 -0.11258423 21.75271606 -0.12530518 C28.11929541 -0.1069763 32.77007776 0.62643853 38.58300781 3.24023438 C39.63488281 3.59085938 40.68675781 3.94148437 41.77050781 4.30273438 C46.1372359 7.31092483 47.96838691 11.25657765 49.58300781 16.24023438 C49.94609993 19.6275621 49.90737522 22.85239696 49.58300781 26.24023438 C51.56300781 26.24023438 53.54300781 26.24023438 55.58300781 26.24023438 C55.58300781 26.57023437 55.58300781 26.90023437 55.58300781 27.24023438 C54.60460937 27.3871875 54.60460937 27.3871875 53.60644531 27.53710938 C47.94869673 28.50510176 44.09878743 29.67514521 39.58300781 33.24023438 C39.58300781 31.26023438 39.58300781 29.28023437 39.58300781 27.24023438 C35.95300781 27.24023438 32.32300781 27.24023438 28.58300781 27.24023438 C28.62425781 28.82835937 28.66550781 30.41648438 28.70800781 32.05273438 C28.80782334 35.89563228 28.79214782 36.92652437 26.58300781 40.24023438 C26.25300781 40.57023437 25.92300781 40.90023437 25.58300781 41.24023438 C25.61575443 43.5741749 25.68488661 45.90763503 25.77050781 48.24023438 C25.84779879 54.58484841 25.63864954 60.10094235 21.58300781 65.24023438 C15.21912216 70.6506859 9.73077473 72.62312048 1.43457031 72.51367188 C-4.62716203 71.93240987 -8.72205327 69.28822824 -12.79199219 64.86523438 C-17.22501447 59.19481021 -17.82844289 53.20989713 -18.41699219 46.24023438 C-19.40699219 46.57023437 -20.39699219 46.90023437 -21.41699219 47.24023438 C-22.30386719 46.78648437 -23.19074219 46.33273437 -24.10449219 45.86523438 C-28.05863619 43.92546562 -31.05634384 43.61615234 -35.41699219 43.24023438 C-35.41699219 44.56023437 -35.41699219 45.88023437 -35.41699219 47.24023438 C-36.07699219 47.24023438 -36.73699219 47.24023438 -37.41699219 47.24023438 C-37.31386719 48.00335938 -37.21074219 48.76648438 -37.10449219 49.55273438 C-37.41699219 52.24023438 -37.41699219 52.24023438 -39.22949219 54.05273438 C-44.84553828 56.14498684 -50.73326933 56.13480866 -56.41699219 54.24023438 C-61.6913773 48.96584926 -61.70359328 42.69675839 -61.79199219 35.67773438 C-61.80593018 34.95763184 -61.81986816 34.2375293 -61.83422852 33.49560547 C-61.77689515 26.98640712 -60.21504504 22.35294647 -55.91699219 17.30273438 C-52.25945067 14.54129053 -48.49339607 14.60052276 -44.04589844 14.81835938 C-40.31231452 15.41750806 -38.14897366 16.64835451 -35.41699219 19.24023438 C-34.75699219 20.89023438 -34.09699219 22.54023438 -33.41699219 24.24023438 C-29.45699219 23.58023438 -25.49699219 22.92023438 -21.41699219 22.24023438 C-23.35453748 15.62978575 -25.75696805 12.18179336 -31.41699219 8.24023438 C-32.07699219 7.91023437 -32.73699219 7.58023438 -33.41699219 7.24023438 C-33.41699219 5.92023438 -33.41699219 4.60023438 -33.41699219 3.24023438 C-36.05699219 3.24023438 -38.69699219 3.24023438 -41.41699219 3.24023438 C-41.74699219 2.58023438 -42.07699219 1.92023438 -42.41699219 1.24023438 C-28.28110714 0.23370505 -14.1689233 0.02259196 0 0 Z " fill="#FDC903" transform="translate(166.4169921875,213.759765625)"/>
<path d="M0 0 C4.41894917 2.72658566 8.11236665 5.8348636 9.9375 10.8125 C9.9375 11.8025 9.9375 12.7925 9.9375 13.8125 C6.6375 14.4725 3.3375 15.1325 -0.0625 15.8125 C-0.701875 14.843125 -1.34125 13.87375 -2 12.875 C-3.7590259 10.05213731 -3.7590259 10.05213731 -5.0625 8.8125 C-10.45904656 8.17867742 -14.68436013 7.82023929 -19.1875 11.0625 C-23.33733186 17.14892007 -22.67070191 24.92081892 -21.7890625 32.01171875 C-21.07826966 35.10299704 -19.99176467 36.89131937 -17.875 39.25 C-14.28204178 41.2460879 -12.12220195 41.31996274 -8.0625 40.8125 C-3.41214842 38.91008344 -1.98300518 36.3610649 -0.0625 31.8125 C7.6875 32.6875 7.6875 32.6875 9.9375 33.8125 C9.80020032 39.30448715 7.50866301 42.20789241 3.87890625 46.04296875 C-1.62656164 51.06103103 -7.20499728 51.1248107 -14.29296875 51.015625 C-16.68828507 50.83994595 -18.76743273 50.49170845 -21.0625 49.8125 C-19.7425 50.4725 -18.4225 51.1325 -17.0625 51.8125 C-19.0625 53.8125 -19.0625 53.8125 -21.23916626 54.05300903 C-22.14073456 54.04856781 -23.04230286 54.04412659 -23.97119141 54.03955078 C-24.99209869 54.03939972 -26.01300598 54.03924866 -27.06484985 54.03909302 C-28.72271011 54.02360916 -28.72271011 54.02360916 -30.4140625 54.0078125 C-31.5432309 54.0049826 -32.67239929 54.00215271 -33.83578491 53.99923706 C-37.45312971 53.98801462 -41.07022966 53.96290622 -44.6875 53.9375 C-47.1354131 53.92747287 -49.58333007 53.91834656 -52.03125 53.91015625 C-58.04175064 53.88806857 -64.05210783 53.85457074 -70.0625 53.8125 C-70.0625 53.1525 -70.0625 52.4925 -70.0625 51.8125 C-71.8259375 51.7196875 -71.8259375 51.7196875 -73.625 51.625 C-78.57778135 51.02573108 -81.27227977 48.98390876 -85.0625 45.8125 C-86.70221823 42.53306355 -86.18290074 38.90691377 -86.16015625 35.3046875 C-86.15914917 34.55968994 -86.15814209 33.81469238 -86.15710449 33.04711914 C-86.15186714 30.2605638 -86.13790589 27.47403038 -86.125 24.6875 C-86.104375 18.45875 -86.08375 12.23 -86.0625 5.8125 C-69.8925 5.8125 -53.7225 5.8125 -37.0625 5.8125 C-37.0625 6.8025 -37.0625 7.7925 -37.0625 8.8125 C-36.4025 8.8125 -35.7425 8.8125 -35.0625 8.8125 C-35.0625 7.4925 -35.0625 6.1725 -35.0625 4.8125 C-34.0725 5.1425 -33.0825 5.4725 -32.0625 5.8125 C-32.5884375 6.92625 -32.5884375 6.92625 -33.125 8.0625 C-34.1345098 11.02372875 -33.94230884 11.93312561 -33.0625 14.8125 C-32.546875 13.61625 -32.03125 12.42 -31.5 11.1875 C-25.60300153 -0.64846847 -12.32002714 -4.79717871 0 0 Z " fill="#FD7602" transform="translate(237.0625,288.1875)"/>
<path d="M0 0 C0.33 0 0.66 0 1 0 C1 10.89 1 21.78 1 33 C3.31 33 5.62 33 8 33 C8.33 33.66 8.66 34.32 9 35 C9.99 34.34 10.98 33.68 12 33 C14.12109375 32.6640625 14.12109375 32.6640625 16.4375 32.625 C17.19933594 32.59664063 17.96117187 32.56828125 18.74609375 32.5390625 C21 33 21 33 23.26953125 34.3203125 C26.08200992 38.67552778 25.41684314 43.19336946 25.25 48.25 C25.23195313 49.28125 25.21390625 50.3125 25.1953125 51.375 C25.14822712 53.91761064 25.0824805 56.45833162 25 59 C22.69 59 20.38 59 18 59 C17.67 52.4 17.34 45.8 17 39 C15.02 39 13.04 39 11 39 C9.0243438 41.96348429 8.73623141 42.68020373 8.5859375 46.01171875 C8.52792969 47.14770508 8.52792969 47.14770508 8.46875 48.30664062 C8.4378125 49.09232422 8.406875 49.87800781 8.375 50.6875 C8.31699219 51.88342773 8.31699219 51.88342773 8.2578125 53.10351562 C8.16367506 55.06863475 8.08075368 57.0342854 8 59 C5.69 59 3.38 59 1 59 C0.505 54.545 0.505 54.545 0 50 C-0.70125 51.2375 -1.4025 52.475 -2.125 53.75 C-6.54705269 60.76087346 -10.85921724 61.96480431 -19 64 C-19 70.6 -19 77.2 -19 84 C-24.63371488 78.36628512 -24.63371488 78.36628512 -26.45703125 75.73828125 C-26.84697266 75.17689453 -27.23691406 74.61550781 -27.63867188 74.03710938 C-28.02603516 73.46798828 -28.41339844 72.89886719 -28.8125 72.3125 C-29.21919922 71.73177734 -29.62589844 71.15105469 -30.04492188 70.55273438 C-33 66.25669643 -33 66.25669643 -33 64 C-34.00953735 64.00888245 -35.01907471 64.01776489 -36.0592041 64.0269165 C-45.59271014 64.10815149 -55.12614557 64.16803686 -64.65991974 64.20724869 C-69.56086195 64.22808595 -74.4615238 64.25633285 -79.36230469 64.30175781 C-84.09558349 64.34535356 -88.82859334 64.36916613 -93.5620575 64.37950897 C-95.36411266 64.38687575 -97.16615381 64.40126133 -98.96809387 64.42292023 C-101.50053228 64.45213733 -104.03187216 64.45594846 -106.56445312 64.45410156 C-107.30245148 64.46848267 -108.04044983 64.48286377 -108.80081177 64.49768066 C-114.25702233 64.45487948 -118.42492827 62.99342706 -123 60 C-125 57.75 -125 57.75 -126 56 C-125.2575 56.433125 -125.2575 56.433125 -124.5 56.875 C-121.08247965 58.41288416 -117.6493798 59.14847805 -114 60 C-114 60.66 -114 61.32 -114 62 C-106.7550005 61.8827136 -99.51015987 61.75787765 -92.26538086 61.62768555 C-89.79861431 61.58426057 -87.33181622 61.54259128 -84.86499023 61.50268555 C-81.32786534 61.44516555 -77.79090034 61.38141925 -74.25390625 61.31640625 C-73.14350479 61.29969376 -72.03310333 61.28298126 -70.88905334 61.26576233 C-69.86807053 61.24581711 -68.84708771 61.22587189 -67.79516602 61.20532227 C-66.43948265 61.18200584 -66.43948265 61.18200584 -65.05641174 61.15821838 C-63.00805899 61.22498543 -63.00805899 61.22498543 -62 60 C-63.32 59.34 -64.64 58.68 -66 58 C-65.505 57.01 -65.505 57.01 -65 56 C-64.45859375 56.32226562 -63.9171875 56.64453125 -63.359375 56.9765625 C-58.26746516 59.18530485 -51.88703169 58.83161633 -46.61328125 57.3125 C-40.68764691 54.60363859 -37.06912224 50.74917147 -34.6875 44.625 C-34.460625 43.75875 -34.23375 42.8925 -34 42 C-37.3 41.34 -40.6 40.68 -44 40 C-44 39.67 -44 39.34 -44 39 C-40.04 39.33 -36.08 39.66 -32 40 C-32 38.68 -32 37.36 -32 36 C-29.12645755 33.82542733 -27.63563409 33 -24 33 C-24 32.34 -24 31.68 -24 31 C-21.89611431 30.94597726 -19.79183286 30.90719744 -17.6875 30.875 C-15.92986328 30.84019531 -15.92986328 30.84019531 -14.13671875 30.8046875 C-11 31 -11 31 -8 33 C-8 33.66 -8 34.32 -8 35 C-7.360625 35.2475 -6.72125 35.495 -6.0625 35.75 C-4 37 -4 37 -3.375 38.875 C-3.25125 39.57625 -3.1275 40.2775 -3 41 C-2.01 42.98 -2.01 42.98 -1 45 C-0.67 30.15 -0.34 15.3 0 0 Z " fill="#FA7605" transform="translate(281,280)"/>
<path d="M0 0 C5.65799238 3.37139772 9.38415451 7.77373519 11.453125 14.05078125 C12.24378429 22.1780233 12.76468347 31.31999684 7.453125 38.05078125 C1.08923934 43.46123277 -4.39910808 45.43366736 -12.6953125 45.32421875 C-19.60065223 44.66206289 -23.94418612 41.1857944 -28.3203125 36.02734375 C-32.33037178 29.5652737 -32.27490626 22.40299815 -31.546875 15.05078125 C-29.6401099 8.59870043 -25.61113721 3.84994092 -19.8125 0.4453125 C-13.72086295 -2.15602055 -6.24358131 -2.32697893 0 0 Z " fill="#0F0902" transform="translate(180.546875,240.94921875)"/>
<path d="M0 0 C5.51115427 3.28996393 9.64168923 7.05663625 11.25 13.375 C11.29125 14.220625 11.3325 15.06625 11.375 15.9375 C9.9632217 16.47144179 8.54529756 16.98915104 7.125 17.5 C6.33609375 17.79003906 5.5471875 18.08007812 4.734375 18.37890625 C2.15219905 18.99024923 0.81220321 18.95885567 -1.625 17.9375 C-1.934375 17.15375 -2.24375 16.37 -2.5625 15.5625 C-3.44623221 12.85005223 -3.44623221 12.85005223 -5.5625 11.125 C-10.25837722 9.30414965 -14.66103761 9.16597505 -19.625 9.9375 C-23.23238608 11.60573783 -25.1872725 13.91110449 -26.7578125 17.59375 C-27.79354242 21.58737528 -27.96793217 25.20551977 -27.9375 29.3125 C-27.93403564 30.06547363 -27.93057129 30.81844727 -27.92700195 31.59423828 C-27.80935484 37.5831915 -27.31242693 42.84288718 -23.20703125 47.5703125 C-19.72898499 50.57603149 -15.43414474 50.33456303 -11.06640625 50.27734375 C-8.36872615 50.09109645 -8.36872615 50.09109645 -5.6875 47.875 C-3.39599711 44.61134436 -2.01378375 41.66528797 -0.625 37.9375 C3.93954251 38.48089792 7.3478176 39.73213821 11.375 41.9375 C10.74091084 48.59543618 7.88159551 52.72577562 3.0625 57.1875 C-3.62117878 62.57392467 -11.3663816 62.63556267 -19.625 61.9375 C-27.51239465 60.3125781 -33.08687547 56.67149124 -37.625 49.9375 C-43.48171493 40.4580748 -43.24316646 27.25818892 -40.89453125 16.6328125 C-37.78469257 8.28067434 -32.45519959 3.04917384 -24.625 -1.0625 C-17.18563062 -3.54228979 -7.13278974 -3.32137537 0 0 Z " fill="#FDFCEF" transform="translate(133.625,220.0625)"/>
<path d="M0 0 C4.67789326 2.93514871 8.69481446 7.01462892 11.1875 12 C11.82150131 19.91981967 12.28752872 27.49903746 7.1875 34 C2.41527319 39.21459615 -2.75961837 41.04661417 -9.6875 41.375 C-15.5302232 41.2344232 -20.08275174 39.5977757 -24.34765625 35.5390625 C-29.76692356 29.31401492 -30.26415783 24.59244069 -30.12109375 16.48828125 C-29.63305431 10.97158231 -28.22812386 7.18504158 -24.09375 3.4453125 C-16.83307805 -2.00019146 -8.66560544 -2.27294569 0 0 Z " fill="#080808" transform="translate(314.8125,242)"/>
<path d="M0 0 C4.41894917 2.72658566 8.11236665 5.8348636 9.9375 10.8125 C9.9375 11.8025 9.9375 12.7925 9.9375 13.8125 C6.6375 14.4725 3.3375 15.1325 -0.0625 15.8125 C-0.701875 14.843125 -1.34125 13.87375 -2 12.875 C-3.7590259 10.05213731 -3.7590259 10.05213731 -5.0625 8.8125 C-10.45904656 8.17867742 -14.68436013 7.82023929 -19.1875 11.0625 C-23.33733186 17.14892007 -22.67070191 24.92081892 -21.7890625 32.01171875 C-21.07826966 35.10299704 -19.99176467 36.89131937 -17.875 39.25 C-14.28204178 41.2460879 -12.12220195 41.31996274 -8.0625 40.8125 C-3.41214842 38.91008344 -1.98300518 36.3610649 -0.0625 31.8125 C7.6875 32.6875 7.6875 32.6875 9.9375 33.8125 C9.80020032 39.30448715 7.50866301 42.20789241 3.87890625 46.04296875 C-1.42659222 50.87876514 -7.146853 51.41225387 -14.0546875 51.23046875 C-19.92235376 50.41509175 -24.08347714 47.63106154 -28.375 43.6875 C-33.68824752 34.63530052 -35.80312963 25.42775464 -33.4375 15.078125 C-30.99200014 7.87263434 -26.5424975 3.68084958 -20.23828125 -0.35546875 C-14.41438842 -2.58255883 -5.81456926 -2.26408007 0 0 Z " fill="#FDF7EC" transform="translate(237.0625,288.1875)"/>
<path d="M0 0 C3.3 0 6.6 0 10 0 C10.33 1.65 10.66 3.3 11 5 C11.78375 4.360625 12.5675 3.72125 13.375 3.0625 C18.12036015 -0.66599726 22.11057822 -0.4975702 28 0 C31.56153081 1.23034701 33.35099895 2.15740845 35.6418457 5.1315918 C37.34010693 8.71830241 37.37929904 11.8263231 37.29296875 15.70703125 C37.28872391 16.43242599 37.28447906 17.15782074 37.28010559 17.90519714 C37.26339543 20.20801891 37.2257596 22.50994553 37.1875 24.8125 C37.17244316 26.3795446 37.1587565 27.946603 37.14648438 29.51367188 C37.11351731 33.34278957 37.06178992 37.17124334 37 41 C33.37 41 29.74 41 26 41 C25.98018066 40.10168457 25.96036133 39.20336914 25.93994141 38.27783203 C25.86190739 34.94909922 25.77521886 31.62082744 25.68261719 28.29248047 C25.64430326 26.8511626 25.60945457 25.40974832 25.578125 23.96826172 C25.53252554 21.89776114 25.47452556 19.82792567 25.4140625 17.7578125 C25.36693115 15.88826904 25.36693115 15.88826904 25.31884766 13.98095703 C25.30317691 10.88458224 25.30317691 10.88458224 23 9 C18.0777237 8.44381285 18.0777237 8.44381285 13.81152344 10.61621094 C11.45373849 13.71882714 11.46103058 15.64331811 11.390625 19.515625 C11.35839844 20.76601563 11.32617188 22.01640625 11.29296875 23.3046875 C11.27169922 25.25761719 11.27169922 25.25761719 11.25 27.25 C11.22035156 28.56742187 11.19070312 29.88484375 11.16015625 31.2421875 C11.08944612 34.49485343 11.03675214 37.74680193 11 41 C7.37 41 3.74 41 0 41 C0 27.47 0 13.94 0 0 Z " fill="#0E0603" transform="translate(196,241)"/>
<path d="M0 0 C3.63 0 7.26 0 11 0 C12.10478537 2.83309344 13.2088433 5.6664669 14.3125 8.5 C14.62123047 9.29148438 14.92996094 10.08296875 15.24804688 10.8984375 C17.20270941 15.91883391 19.11847607 20.95172657 21 26 C21.19634033 25.42556152 21.39268066 24.85112305 21.5949707 24.25927734 C22.4964936 21.62968104 23.40443967 19.00234558 24.3125 16.375 C24.62123047 15.47136719 24.92996094 14.56773437 25.24804688 13.63671875 C26.88995971 8.90109647 28.61781888 4.41253241 31 0 C34.63 0 38.26 0 42 0 C40.4493246 4.83837345 38.63915703 9.53285074 36.7421875 14.2421875 C36.43427277 15.01055939 36.12635803 15.77893127 35.80911255 16.57058716 C34.83270288 19.00604822 33.85388993 21.44053493 32.875 23.875 C32.20947601 25.53379022 31.54410977 27.19264374 30.87890625 28.8515625 C29.25442866 32.90177643 27.62779612 36.95111873 26 41 C22.7 41 19.4 41 16 41 C11.60664079 30.8086021 7.21891131 20.61404086 2.9375 10.375 C2.63900146 9.67189697 2.34050293 8.96879395 2.03295898 8.24438477 C0.82247965 5.32818074 0 3.1913181 0 0 Z " fill="#0D0909" transform="translate(239,241)"/>
<path d="M0 0 C3.49069817 1.85220719 4.59514969 3.17102079 6.3125 6.6875 C7.80801159 13.89314673 7.51606968 19.48875985 4 26 C1.98060136 28.5242483 1.15499404 28.94833532 -2 30 C-6.98758297 30.36945059 -10.04959346 30.18227193 -14 27 C-18.48428929 20.98821558 -17.91054121 14.16858294 -17 7 C-14.04268009 -0.80203504 -7.52993929 -1.43482075 0 0 Z " fill="#FCCA04" transform="translate(176,248)"/>
<path d="M0 0 C3.52121839 2.04230667 4.75217677 3.62826516 7 7 C7.6490866 12.29835804 7.90678439 17.29106019 5.375 22.0625 C1.17188757 25.49135488 -2.00923615 27.31375793 -7.5 27 C-12.29034478 26.27982992 -14.65228152 24.43141144 -18 21 C-20.09948946 16.80102108 -19.54696419 11.56001667 -19 7 C-14.98121816 -1.02256823 -8.01705072 -0.79207177 0 0 Z " fill="#2A0900" transform="translate(270,313)"/>
<path d="M0 0 C1.98 0 3.96 0 6 0 C6 6.27 6 12.54 6 19 C9.63 19 13.26 19 17 19 C17 12.73 17 6.46 17 0 C21.95 0 26.9 0 32 0 C36 9.75 36 9.75 36 12 C35.01 11.67 34.02 11.34 33 11 C33 9.68 33 8.36 33 7 C32.34 7 31.68 7 31 7 C30.505 5.02 30.505 5.02 30 3 C26.37 2.67 22.74 2.34 19 2 C19 3.18078125 19 4.3615625 19 5.578125 C19 11.38541667 19 17.19270833 19 23 C20.32 23.66 21.64 24.32 23 25 C20.42375394 26.28812303 19.75526509 25.70287375 17 25 C9.48573424 24.35221847 2.75524943 23.84394074 -3.45703125 28.5859375 C-8.152941 32.88953074 -9.98981552 37.06995578 -12 43 C-12.33 43 -12.66 43 -13 43 C-13.495 39.04 -13.495 39.04 -14 35 C-13.34 35 -12.68 35 -12 35 C-12.495 33.02 -12.495 33.02 -13 31 C-13.33 31.99 -13.66 32.98 -14 34 C-14.66 34 -15.32 34 -16 34 C-16.33 33.34 -16.66 32.68 -17 32 C-32.84 31.67 -48.68 31.34 -65 31 C-65 42.88 -65 54.76 -65 67 C-67 65 -67 65 -67.22705078 61.56005859 C-67.22673369 60.08948021 -67.21540987 58.61887858 -67.1953125 57.1484375 C-67.1924826 56.37440582 -67.18965271 55.60037415 -67.18673706 54.80288696 C-67.17552754 52.32676843 -67.15042203 49.8510095 -67.125 47.375 C-67.11497118 45.69792188 -67.10584516 44.02083811 -67.09765625 42.34375 C-67.07558574 38.22902777 -67.04105102 34.11457489 -67 30 C-66.43560715 29.99635437 -65.87121429 29.99270874 -65.28971863 29.98895264 C-59.36730088 29.94684811 -53.44563808 29.87731098 -47.52368164 29.79248047 C-45.31933171 29.76441191 -43.11488377 29.74312784 -40.91040039 29.72900391 C-37.72491789 29.70737809 -34.54059646 29.66062796 -31.35546875 29.609375 C-30.38417526 29.60814636 -29.41288177 29.60691772 -28.41215515 29.60565186 C-20.74156258 29.44476854 -12.66447256 28.27670707 -6.7618866 22.99871826 C-1.15791498 16.64146438 -0.30982152 8.14830609 0 0 Z " fill="#F97807" transform="translate(216,263)"/>
<path d="M0 0 C3.50252011 2.04313673 5.77361702 4.09787233 7 8 C7 10.31 7 12.62 7 15 C1.39 15 -4.22 15 -10 15 C-9.34 16.65 -8.68 18.3 -8 20 C-5.08347826 20.16681109 -5.08347826 20.16681109 -2 20 C-1.34 19.34 -0.68 18.68 0 18 C3.125 18.375 3.125 18.375 6 19 C4.75023244 22.65316671 4.32901247 23.78065836 1 26 C-4.68277357 26.76903631 -9.45552774 27.12049948 -14.1875 23.6875 C-17.42649582 18.88485103 -17.37531504 14.60009544 -17 9 C-16.19955514 5.72545286 -15.20356431 4.23537123 -13 1.6875 C-8.68007907 -0.74245552 -4.84968388 -0.79764537 0 0 Z " fill="#0A0A0A" transform="translate(359,313)"/>
<path d="M0 0 C1.98 0 3.96 0 6 0 C6.33 0.99 6.66 1.98 7 3 C7.58974609 2.27296875 7.58974609 2.27296875 8.19140625 1.53125 C10.52961197 -0.44839718 11.90337144 -0.46349921 14.9375 -0.5 C15.79214844 -0.5309375 16.64679688 -0.561875 17.52734375 -0.59375 C20 0 20 0 22.30078125 1.85546875 C24.80137902 6.48301175 24.43044878 10.64541855 24.25 15.8125 C24.23195313 16.79154297 24.21390625 17.77058594 24.1953125 18.77929688 C24.14832887 21.18720771 24.08265694 23.59309335 24 26 C21.69 26 19.38 26 17 26 C16.97494385 25.42967041 16.9498877 24.85934082 16.92407227 24.27172852 C16.80843451 21.70173843 16.68556376 19.13214473 16.5625 16.5625 C16.52318359 15.66466797 16.48386719 14.76683594 16.44335938 13.84179688 C16.40146484 12.98779297 16.35957031 12.13378906 16.31640625 11.25390625 C16.27974854 10.46314697 16.24309082 9.6723877 16.20532227 8.85766602 C16.19436743 6.98598559 16.19436743 6.98598559 15 6 C12.54190002 5.7499227 12.54190002 5.7499227 10 6 C7.64641749 8.35358251 7.72128096 8.92968394 7.5859375 12.1328125 C7.54726563 12.93847656 7.50859375 13.74414062 7.46875 14.57421875 C7.4378125 15.41597656 7.406875 16.25773437 7.375 17.125 C7.33632813 17.97449219 7.29765625 18.82398438 7.2578125 19.69921875 C7.16343506 21.79911684 7.08062414 23.89952891 7 26 C4.69 26 2.38 26 0 26 C0 17.42 0 8.84 0 0 Z " fill="#090909" transform="translate(313,313)"/>
<path d="M0 0 C3.44744332 2.7872946 4.73773059 4.29399996 5.41015625 8.66796875 C5.56943801 13.7996114 5.51307828 17.96646568 2 22 C-1.7373856 24.4915904 -3.57331583 24.45793285 -8 24 C-11.38939556 21.86320715 -12.72582557 20.8225233 -14 17 C-14.99736112 7.9240138 -14.99736112 7.9240138 -12.953125 3.98046875 C-8.81767893 -1.01855576 -6.21749617 -1.58071937 0 0 Z " fill="#F9F9F9" transform="translate(310,250)"/>
<path d="M0 0 C1.98 0 3.96 0 6 0 C6.33 0.66 6.66 1.32 7 2 C7.99 1.34 8.98 0.68 10 0 C12.12109375 -0.3359375 12.12109375 -0.3359375 14.4375 -0.375 C15.19933594 -0.40335937 15.96117187 -0.43171875 16.74609375 -0.4609375 C19 0 19 0 21.26953125 1.3203125 C24.08200992 5.67552778 23.41684314 10.19336946 23.25 15.25 C23.23195313 16.28125 23.21390625 17.3125 23.1953125 18.375 C23.14822712 20.91761064 23.0824805 23.45833162 23 26 C20.69 26 18.38 26 16 26 C15.67 19.4 15.34 12.8 15 6 C13.02 6 11.04 6 9 6 C7.0243438 8.96348429 6.73623141 9.68020373 6.5859375 13.01171875 C6.54726563 13.76904297 6.50859375 14.52636719 6.46875 15.30664062 C6.4378125 16.09232422 6.406875 16.87800781 6.375 17.6875 C6.33632813 18.48478516 6.29765625 19.28207031 6.2578125 20.10351562 C6.16367506 22.06863475 6.08075368 24.0342854 6 26 C4.02 26 2.04 26 0 26 C0 17.42 0 8.84 0 0 Z " fill="#090808" transform="translate(283,313)"/>
<path d="M0 0 C3.22496917 1.80598274 4.562675 2.78894616 5.8125 6.25 C5.874375 6.8275 5.93625 7.405 6 8 C3.69 8.33 1.38 8.66 -1 9 C-1.66 8.01 -2.32 7.02 -3 6 C-5.5 5.5 -5.5 5.5 -8 6 C-10.46751239 9.70126859 -10.30721156 11.62223532 -10 16 C-9.11935073 18.35369807 -9.11935073 18.35369807 -8 20 C-5.62625139 20.33425735 -5.62625139 20.33425735 -3 20 C-1.15684329 18.0995533 -1.15684329 18.0995533 0 16 C1.98 16.33 3.96 16.66 6 17 C5.73309994 20.20280069 5.16670984 21.7943912 3.125 24.3125 C-1.52654132 26.82433231 -5.82423911 26.77052681 -11 26 C-14.19168619 24.24131577 -15.46409612 22.89317313 -17.3125 19.8125 C-18.68024245 14.21718998 -18.91168308 9.72905412 -16.1875 4.5625 C-11.4953274 -0.93404505 -6.81836219 -0.81740599 0 0 Z " fill="#0C0C0C" transform="translate(388,313)"/>
<path d="M0 0 C0 2.97 0 5.94 0 9 C1.65 9 3.3 9 5 9 C5 10.98 5 12.96 5 15 C3.35 15 1.7 15 0 15 C0 19.95 0 24.9 0 30 C1.65 30 3.3 30 5 30 C5 31.65 5 33.3 5 35 C3.37581255 35.08090971 1.75048255 35.13914995 0.125 35.1875 C-0.77992188 35.22230469 -1.68484375 35.25710938 -2.6171875 35.29296875 C-3.79667969 35.14794922 -3.79667969 35.14794922 -5 35 C-7.06723714 31.89914429 -7.24497423 31.27068319 -7.1953125 27.76953125 C-7.18886719 26.96708984 -7.18242187 26.16464844 -7.17578125 25.33789062 C-7.15902344 24.50451172 -7.14226562 23.67113281 -7.125 22.8125 C-7.11597656 21.96751953 -7.10695313 21.12253906 -7.09765625 20.25195312 C-7.07410703 18.16784757 -7.03823647 16.08388783 -7 14 C-7.99 14 -8.98 14 -10 14 C-10 12.35 -10 10.7 -10 9 C-9.01 9 -8.02 9 -7 9 C-7.103125 8.071875 -7.20625 7.14375 -7.3125 6.1875 C-7.209375 5.135625 -7.10625 4.08375 -7 3 C-4.61107499 1.11400657 -3.08148442 0 0 0 Z " fill="#0E0E0E" transform="translate(407,304)"/>
<path d="M0 0 C0.7425 0.433125 0.7425 0.433125 1.5 0.875 C4.91752035 2.41288416 8.3506202 3.14847805 12 4 C12 4.66 12 5.32 12 6 C19.2449995 5.8827136 26.48984013 5.75787765 33.73461914 5.62768555 C36.20138569 5.58426057 38.66818378 5.54259128 41.13500977 5.50268555 C44.67213466 5.44516555 48.20909966 5.38141925 51.74609375 5.31640625 C52.85649521 5.29969376 53.96689667 5.28298126 55.11094666 5.26576233 C56.13192947 5.24581711 57.15291229 5.22587189 58.20483398 5.20532227 C59.10862289 5.18977798 60.0124118 5.1742337 60.94358826 5.15821838 C62.99194101 5.22498543 62.99194101 5.22498543 64 4 C62.68 3.34 61.36 2.68 60 2 C60.33 1.34 60.66 0.68 61 0 C61.53753906 0.32613281 62.07507813 0.65226562 62.62890625 0.98828125 C65.54969909 2.23455035 67.77008241 2.23143644 70.9375 2.1875 C71.95714844 2.18105469 72.97679687 2.17460937 74.02734375 2.16796875 C76.78374048 2.01221966 79.31378395 1.61837386 82 1 C81.34 2.32 80.68 3.64 80 5 C81.77074917 5.02705729 83.54161711 5.04642195 85.3125 5.0625 C86.29863281 5.07410156 87.28476563 5.08570313 88.30078125 5.09765625 C91.09963849 5.12329862 91.09963849 5.12329862 94 4 C94.495 7.465 94.495 7.465 95 11 C94.01 10.505 94.01 10.505 93 10 C93 9.34 93 8.68 93 8 C91.99046265 8.00888245 90.98092529 8.01776489 89.9407959 8.0269165 C80.40728986 8.10815149 70.87385443 8.16803686 61.34008026 8.20724869 C56.43913805 8.22808595 51.5384762 8.25633285 46.63769531 8.30175781 C41.90441651 8.34535356 37.17140666 8.36916613 32.4379425 8.37950897 C30.63588734 8.38687575 28.83384619 8.40126133 27.03190613 8.42292023 C24.49946772 8.45213733 21.96812784 8.45594846 19.43554688 8.45410156 C18.32854935 8.47567322 18.32854935 8.47567322 17.19918823 8.49768066 C11.74297767 8.45487948 7.57507173 6.99342706 3 4 C1 1.75 1 1.75 0 0 Z " fill="#EE882D" transform="translate(155,336)"/>
<path d="M0 0 C0.99 0 1.98 0 3 0 C3.33 4.62 3.66 9.24 4 14 C5.85625 14.2784375 5.85625 14.2784375 7.75 14.5625 C8.44609375 14.66691406 9.1421875 14.77132813 9.859375 14.87890625 C12.33941547 15.12547949 12.33941547 15.12547949 16 14 C16.33 9.38 16.66 4.76 17 0 C22 1 22 1 23 2 C23.49712786 7.31356333 23.91279934 12.27972433 21.375 17.0625 C17.12916365 20.5262086 13.97701709 22.31477608 8.4375 21.9375 C4.24686919 21.23788373 1.66560846 20.49861111 -1 17 C-2.40078027 11.06291808 -2.58897966 5.63483809 0 0 Z " fill="#0C0002" transform="translate(254,318)"/>
<path d="M0 0 C0.81563416 -0.00860046 1.63126831 -0.01720093 2.47161865 -0.02606201 C3.35789948 -0.03032196 4.2441803 -0.03458191 5.15731812 -0.03897095 C6.09768921 -0.04714844 7.0380603 -0.05532593 8.00692749 -0.06375122 C11.1187375 -0.08856003 14.23050195 -0.10511154 17.34237671 -0.11953735 C18.93993868 -0.12752287 18.93993868 -0.12752287 20.56977463 -0.13566971 C26.20930003 -0.16238424 31.84880344 -0.18176286 37.4883728 -0.19619751 C42.14612518 -0.20952488 46.80343824 -0.23735836 51.46102905 -0.27822876 C57.09373586 -0.32765136 62.72604484 -0.35233064 68.3589592 -0.35942459 C70.49987506 -0.36612047 72.64078263 -0.38129891 74.78157425 -0.4053154 C97.01601028 -0.64048205 97.01601028 -0.64048205 103.86581421 5.15390015 C104.36081421 6.14390015 104.36081421 6.14390015 104.86581421 7.15390015 C103.54581421 7.15390015 102.22581421 7.15390015 100.86581421 7.15390015 C100.86581421 6.49390015 100.86581421 5.83390015 100.86581421 5.15390015 C94.74837938 3.37286643 89.28578982 2.86623615 82.93319702 2.89511108 C81.97285049 2.89160645 81.01250397 2.88810181 80.02305603 2.88449097 C76.87160869 2.87573961 73.72038854 2.88149758 70.56893921 2.88827515 C68.37035072 2.88692705 66.17176252 2.8849853 63.97317505 2.88247681 C59.37697497 2.87953487 54.78085286 2.88379494 50.18466187 2.89315796 C44.29098976 2.90457882 38.39749929 2.89797045 32.50383377 2.88601303 C27.9691531 2.87879227 23.43451564 2.8810829 18.89983368 2.88626862 C16.7260918 2.88760312 14.55234601 2.88596437 12.3786087 2.88130951 C9.34591738 2.87623786 6.31352248 2.88396245 3.28085327 2.89511108 C1.93269279 2.88903839 1.93269279 2.88903839 0.55729675 2.88284302 C-0.26964188 2.88848267 -1.09658051 2.89412231 -1.94857788 2.89993286 C-3.02255136 2.90106394 -3.02255136 2.90106394 -4.11822128 2.90221786 C-6.5006228 3.19964783 -8.09540387 3.89826753 -10.13418579 5.15390015 C-10.46418579 5.81390015 -10.79418579 6.47390015 -11.13418579 7.15390015 C-12.45418579 7.15390015 -13.77418579 7.15390015 -15.13418579 7.15390015 C-15.79418579 8.47390015 -16.45418579 9.79390015 -17.13418579 11.15390015 C-17.13418579 8.15390015 -17.13418579 8.15390015 -15.44668579 6.15390015 C-10.613959 1.97424454 -6.35601822 0.05016589 0 0 Z " fill="#F6D449" transform="translate(104.13418579101563,211.84609985351563)"/>
<path d="M0 0 C3.375 0.5 3.375 0.5 5.07421875 1.67578125 C6.89952473 4.23559475 6.67213589 6.08114972 6.5625 9.1875 C6.53542969 10.18136719 6.50835937 11.17523438 6.48046875 12.19921875 C6.44566406 12.95847656 6.41085938 13.71773438 6.375 14.5 C-0.25 14.75 -0.25 14.75 -3.625 12.5 C-5.6390956 15.5211434 -5.89336596 16.30660017 -6.0390625 19.73046875 C-6.07773438 20.53291016 -6.11640625 21.33535156 -6.15625 22.16210938 C-6.1871875 22.99548828 -6.218125 23.82886719 -6.25 24.6875 C-6.28867188 25.53248047 -6.32734375 26.37746094 -6.3671875 27.24804688 C-6.46136279 29.33167524 -6.54426675 31.41580753 -6.625 33.5 C-7.285 33.5 -7.945 33.5 -8.625 33.5 C-8.77032035 28.93783535 -8.85908477 24.37626638 -8.9375 19.8125 C-8.97939453 18.51892578 -9.02128906 17.22535156 -9.06445312 15.89257812 C-9.08056641 14.64541016 -9.09667969 13.39824219 -9.11328125 12.11328125 C-9.13946533 10.96641846 -9.16564941 9.81955566 -9.19262695 8.63793945 C-8.21742828 3.24687342 -5.33344838 0.73564805 0 0 Z " fill="#EFC622" transform="translate(215.625,248.5)"/>
<path d="M0 0 C0.495 0.99 0.495 0.99 1 2 C1.99 2.33 2.98 2.66 4 3 C4.5782957 11.44954268 4.0280011 19.05369813 -1.5078125 25.8515625 C-8.77811128 32.71607716 -17.59265719 33.44388496 -27.16015625 33.29296875 C-28.19063583 33.28872391 -29.22111542 33.28447906 -30.28282166 33.28010559 C-33.54299115 33.26344216 -36.80252039 33.22581301 -40.0625 33.1875 C-42.2857983 33.17243722 -44.50910639 33.15875162 -46.73242188 33.14648438 C-52.15516281 33.11357924 -57.57753564 33.06350457 -63 33 C-63 32.67 -63 32.34 -63 32 C-61.74977051 31.98018066 -60.49954102 31.96036133 -59.21142578 31.93994141 C-54.53333806 31.86335584 -49.85554011 31.77472376 -45.17773438 31.68261719 C-43.16054035 31.64454475 -41.14328345 31.60965568 -39.12597656 31.578125 C-36.21136128 31.53199855 -33.29717087 31.47408704 -30.3828125 31.4140625 C-29.04937302 31.39673569 -29.04937302 31.39673569 -27.68899536 31.37905884 C-22.29986849 31.25456672 -17.27994995 30.60278545 -12.01779175 29.42294312 C-10 29 -10 29 -8 29 C-7.896875 28.401875 -7.79375 27.80375 -7.6875 27.1875 C-7 25 -7 25 -5.48242188 23.61889648 C-3.62991667 21.59584609 -3.62065487 20.61562388 -3.59375 17.91015625 C-3.57183594 17.12576172 -3.54992187 16.34136719 -3.52734375 15.53320312 C-3.51832031 14.71787109 -3.50929687 13.90253906 -3.5 13.0625 C-3.40680734 4.68181741 -3.40680734 4.68181741 -1.46875 1.43359375 C-0.9840625 0.96050781 -0.499375 0.48742187 0 0 Z " fill="#FDC207" transform="translate(212,260)"/>
<path d="M0 0 C0.33 0 0.66 0 1 0 C1 13.53 1 27.06 1 41 C4.96 41 8.92 41 13 41 C13 41.99 13 42.98 13 44 C11.10353002 43.88506243 9.20781668 43.75760358 7.3125 43.625 C6.25675781 43.55539062 5.20101562 43.48578125 4.11328125 43.4140625 C-0.07720061 42.85673367 -2.9889237 42.0110763 -6 39 C-6.66 39.99 -7.32 40.98 -8 42 C-9.32 41.67 -10.64 41.34 -12 41 C-10.8553125 39.9790625 -10.8553125 39.9790625 -9.6875 38.9375 C-4.14758715 32.88224642 -3.56504248 27.43672524 -3.8125 19.5625 C-3.82603516 18.73556641 -3.83957031 17.90863281 -3.85351562 17.05664062 C-3.88853008 15.0374736 -3.94232438 13.01864682 -4 11 C-3.34 11.33 -2.68 11.66 -2 12 C-0.78306124 9.56612247 -0.68040104 7.58161154 -0.4375 4.875 C-0.35371094 3.96492187 -0.26992187 3.05484375 -0.18359375 2.1171875 C-0.12300781 1.41851562 -0.06242188 0.71984375 0 0 Z " fill="#F9CA0C" transform="translate(195,241)"/>
<path d="M0 0 C4.95 0 9.9 0 15 0 C19 9.75 19 9.75 19 12 C18.01 11.67 17.02 11.34 16 11 C16 9.68 16 8.36 16 7 C15.34 7 14.68 7 14 7 C13.505 5.02 13.505 5.02 13 3 C7.555 2.505 7.555 2.505 2 2 C2 3.18078125 2 4.3615625 2 5.578125 C2 11.38541667 2 17.19270833 2 23 C3.32 23.66 4.64 24.32 6 25 C3.4245126 26.2877437 2.75343408 25.70360326 0 25 C-8.95551688 24.21931982 -15.64734947 24.5535922 -23 30 C-23 28.68 -23 27.36 -23 26 C-21.68 26 -20.36 26 -19 26 C-19 25.34 -19 24.68 -19 24 C-17.68 24 -16.36 24 -15 24 C-15 23.34 -15 22.68 -15 22 C-12.72880304 19.76665633 -11.39706651 19.04159216 -8.203125 18.70703125 C-5.46875 18.8046875 -2.734375 18.90234375 0 19 C0 12.73 0 6.46 0 0 Z " fill="#EC8127" transform="translate(233,263)"/>
<path d="M0 0 C2.875 0.9375 2.875 0.9375 4.875 3.9375 C5.54269706 10.94831917 5.54269706 10.94831917 3.1875 14.4375 C0.42377578 16.23018598 -0.89322531 16.51756212 -4.125 15.9375 C-6.21391423 14.3306429 -7.02575723 13.4229849 -7.55859375 10.81640625 C-7.56504731 6.98944279 -7.55112161 4.6258503 -5.5 1.3125 C-3.125 -0.0625 -3.125 -0.0625 0 0 Z " fill="#EC7818" transform="translate(265.125,318.0625)"/>
<path d="M0 0 C0.33 0 0.66 0 1 0 C1.02578125 0.83402344 1.0515625 1.66804688 1.078125 2.52734375 C1.57214266 12.32910321 3.30919261 19.59232039 10 27 C8.35 27 6.7 27 5 27 C-0.328125 14.890625 -0.328125 14.890625 0 8 C-0.66 8 -1.32 8 -2 8 C-2.103125 9.258125 -2.20625 10.51625 -2.3125 11.8125 C-2.80357143 15.74107143 -2.80357143 15.74107143 -4.375 17.8125 C-4.91125 18.204375 -5.4475 18.59625 -6 19 C-6.556875 19.556875 -7.11375 20.11375 -7.6875 20.6875 C-8.120625 21.120625 -8.55375 21.55375 -9 22 C-9.99 21.67 -10.98 21.34 -12 21 C-11.59007812 20.54109375 -11.18015625 20.0821875 -10.7578125 19.609375 C-10.21898437 18.99578125 -9.68015625 18.3821875 -9.125 17.75 C-8.59132812 17.14671875 -8.05765625 16.5434375 -7.5078125 15.921875 C-4.75134519 12.40845034 -4 10.56153692 -4 6 C-7.63 4.68 -11.26 3.36 -15 2 C-15.0825 2.886875 -15.165 3.77375 -15.25 4.6875 C-16.38547704 9.7025236 -18.78435789 12.18957192 -23 15 C-27.72248671 15.61632454 -31.80948357 15.57144789 -36.125 13.5 C-36.74375 13.005 -37.3625 12.51 -38 12 C-36.14698719 12 -34.29371976 12.01940923 -32.44140625 12.0703125 C-31.49136719 12.08835937 -30.54132813 12.10640625 -29.5625 12.125 C-28.61503906 12.14820313 -27.66757813 12.17140625 -26.69140625 12.1953125 C-23.89523539 11.99239734 -22.30865672 11.57094802 -20 10 C-19.18828772 7.44480079 -19.18828772 7.44480079 -19 5 C-18.34 5 -17.68 5 -17 5 C-17 3.68 -17 2.36 -17 1 C-11.26685644 0.70345809 -8.09670254 1.08759855 -3 4 C-2.34 4 -1.68 4 -1 4 C-0.67 2.68 -0.34 1.36 0 0 Z " fill="#F1CD41" transform="translate(148,256)"/>
<path d="M0 0 C0.33 0 0.66 0 1 0 C1.69022656 19.67512846 2.16771906 39.30978274 2 59 C1.67 59 1.34 59 1 59 C0.67 56.03 0.34 53.06 0 50 C-0.70125 51.2375 -1.4025 52.475 -2.125 53.75 C-5.5011818 59.10271401 -9.26299952 61.67618682 -15.375 63.25 C-16.57125 63.4975 -17.7675 63.745 -19 64 C-18.67 63.34 -18.34 62.68 -18 62 C-19.65 61.34 -21.3 60.68 -23 60 C-20.27972533 59.09324178 -18.43680477 58.88435245 -15.625 58.75 C-11.85609936 58.38170352 -11.07917034 58.06597528 -8 55.5 C-7.34 54.675 -6.68 53.85 -6 53 C-5.67 52.67 -5.34 52.34 -5 52 C-4.76636119 50.15108054 -4.58696365 48.29511969 -4.4375 46.4375 C-4.31181641 44.91962891 -4.31181641 44.91962891 -4.18359375 43.37109375 C-4.12300781 42.58863281 -4.06242187 41.80617188 -4 41 C-3.01 42.32 -2.02 43.64 -1 45 C-0.67 30.15 -0.34 15.3 0 0 Z " fill="#CD8443" transform="translate(281,280)"/>
<path d="M0 0 C2.10388569 -0.05402274 4.20816714 -0.09280256 6.3125 -0.125 C8.07013672 -0.15980469 8.07013672 -0.15980469 9.86328125 -0.1953125 C13 0 13 0 16 2 C16 2.66 16 3.32 16 4 C17.32 4.66 18.64 5.32 20 6 C20 6.66 20 7.32 20 8 C19.34 8 18.68 8 18 8 C17.071875 6.7625 17.071875 6.7625 16.125 5.5 C13.38032732 2.61562841 10.89092684 2.54744019 7 2.4375 C3.04801686 2.5979126 1.27289596 2.83947296 -2.1875 4.875 C-5.1198307 8.31290496 -5.16022019 10.41202371 -5.1875 14.875 C-5.20876953 16.44894531 -5.20876953 16.44894531 -5.23046875 18.0546875 C-5.00504937 20.93547071 -4.48964317 22.56240208 -3 25 C-6 24 -6 24 -7.1875 21.6875 C-8 19 -8 19 -8 15 C-8.66 15 -9.32 15 -10 15 C-10.061875 16.0725 -10.12375 17.145 -10.1875 18.25 C-11 22 -11 22 -13.3125 24.5 C-16 26 -16 26 -18.16796875 25.59375 C-18.77253906 25.3978125 -19.37710938 25.201875 -20 25 C-19.52949219 24.6596875 -19.05898437 24.319375 -18.57421875 23.96875 C-13.61671139 20.10948961 -11.76424854 17.01920088 -10 11 C-13.3 10.34 -16.6 9.68 -20 9 C-20 8.67 -20 8.34 -20 8 C-16.04 8.33 -12.08 8.66 -8 9 C-8 7.68 -8 6.36 -8 5 C-5.12645755 2.82542733 -3.63563409 2 0 2 C0 1.34 0 0.68 0 0 Z " fill="#DF7C2B" transform="translate(257,311)"/>
<path d="M0 0 C-0.33 0.99 -0.66 1.98 -1 3 C-2.65 3 -4.3 3 -6 3 C-6 3.66 -6 4.32 -6 5 C-8.43915121 6.2195756 -9.91115147 6.08586292 -12.63330078 6.02172852 C-13.59414581 6.00163223 -14.55499084 5.98153595 -15.54495239 5.96083069 C-16.58457123 5.93379562 -17.62419006 5.90676056 -18.6953125 5.87890625 C-19.75789276 5.85529526 -20.82047302 5.83168427 -21.91525269 5.80735779 C-25.31863397 5.73060988 -28.72179404 5.64663335 -32.125 5.5625 C-34.42837449 5.50929046 -36.73175987 5.45655 -39.03515625 5.40429688 C-44.69028537 5.27586388 -50.34505787 5.13766713 -56 5 C-56 16.88 -56 28.76 -56 41 C-58 39 -58 39 -58.22705078 35.56005859 C-58.22673369 34.08948021 -58.21540987 32.61887858 -58.1953125 31.1484375 C-58.1924826 30.37440582 -58.18965271 29.60037415 -58.18673706 28.80288696 C-58.17552754 26.32676843 -58.15042203 23.8510095 -58.125 21.375 C-58.11497118 19.69792188 -58.10584516 18.02083811 -58.09765625 16.34375 C-58.07558574 12.22902777 -58.04105102 8.11457489 -58 4 C-57.43116592 3.99413376 -56.86233185 3.98826752 -56.27626038 3.98222351 C-50.32179546 3.91797431 -44.36785536 3.83347571 -38.41381836 3.73754883 C-36.19579007 3.70442464 -33.97768003 3.67635431 -31.75952148 3.65356445 C-28.55938076 3.61978798 -25.35998087 3.56746047 -22.16015625 3.51171875 C-21.17854019 3.50532883 -20.19692413 3.4989389 -19.18556213 3.49235535 C-13.61153462 3.37501651 -8.9870718 2.64564929 -3.77171326 0.63825989 C-2 0 -2 0 0 0 Z " fill="#E98214" transform="translate(207,289)"/>
<path d="M0 0 C3.49069817 1.85220719 4.59514969 3.17102079 6.3125 6.6875 C7.80801159 13.89314673 7.51606968 19.48875985 4 26 C1.98060136 28.5242483 1.15499404 28.94833532 -2 30 C-6.98758297 30.36945059 -10.04959346 30.18227193 -14 27 C-18.48428929 20.98821558 -17.91054121 14.16858294 -17 7 C-14.04268009 -0.80203504 -7.52993929 -1.43482075 0 0 Z M-15 5 C-16.93047388 10.17367 -16.57726248 16.58599326 -15.3125 21.875 C-13.53436606 24.75388353 -11.91087711 26.25347373 -9 28 C-5.2102435 28.32670315 -2.60572704 28.20190901 1 27 C1 26.01 1 25.02 1 24 C1.66 24 2.32 24 3 24 C3 22.68 3 21.36 3 20 C3.66 20 4.32 20 5 20 C5 15.71 5 11.42 5 7 C4.34 7 3.68 7 3 7 C1.95107762 5.36368108 0.95093297 3.69514137 0 2 C-1.13558911 0.65333163 -1.13558911 0.65333163 -4.125 0.6875 C-8.98992117 1.07983235 -11.05979665 2.16305359 -15 5 Z " fill="#E4BC31" transform="translate(176,248)"/>
<path d="M0 0 C0.91463407 3.1155829 1.12154961 5.89395628 1.11352539 9.13574219 C1.11344986 10.15649841 1.11337433 11.17725464 1.11329651 12.22894287 C1.10813522 13.32386047 1.10297394 14.41877808 1.09765625 15.546875 C1.0962413 16.6732135 1.09482635 17.799552 1.09336853 18.96002197 C1.08777199 22.55670835 1.0752201 26.15333244 1.0625 29.75 C1.05748455 32.18880118 1.05292172 34.62760334 1.04882812 37.06640625 C1.0378037 43.04429208 1.02106898 49.02214159 1 55 C1.66 55 2.32 55 3 55 C3.33 56.98 3.66 58.96 4 61 C0.20644249 57.83870208 -1.12683642 54.74997144 -2 50 C-2.27315054 46.54688118 -2.2806578 43.11103079 -2.265625 39.6484375 C-2.26753845 38.67137848 -2.2694519 37.69431946 -2.27142334 36.68765259 C-2.27277874 34.63193503 -2.26912754 32.57620872 -2.26074219 30.52050781 C-2.25001045 27.37805988 -2.26067138 24.23618058 -2.2734375 21.09375 C-2.27211624 19.09114458 -2.26955455 17.0885395 -2.265625 15.0859375 C-2.26967346 14.14938324 -2.27372192 13.21282898 -2.27789307 12.24789429 C-2.2454693 7.73244409 -2.15390945 4.09499467 0 0 Z " fill="#F4D246" transform="translate(84,224)"/>
<path d="M0 0 C14.52 0 29.04 0 44 0 C44 0.33 44 0.66 44 1 C35.585 1.495 35.585 1.495 27 2 C29.64 2.33 32.28 2.66 35 3 C35 3.99 35 4.98 35 6 C34.33613281 5.84144531 33.67226562 5.68289062 32.98828125 5.51953125 C23.66163995 3.89803675 14.0678184 3.67523986 6 9 C5.01 9.495 5.01 9.495 4 10 C4.66 8.35 5.32 6.7 6 5 C7.32 5 8.64 5 10 5 C10 4.34 10 3.68 10 3 C13.465 2.505 13.465 2.505 17 2 C11.39 1.67 5.78 1.34 0 1 C0 0.67 0 0.34 0 0 Z " fill="#F9CA0F" transform="translate(98,214)"/>
<path d="M0 0 C0.99 0 1.98 0 3 0 C3.04898437 0.99902344 3.09796875 1.99804688 3.1484375 3.02734375 C3.22320312 4.31769531 3.29796875 5.60804688 3.375 6.9375 C3.44460938 8.22527344 3.51421875 9.51304687 3.5859375 10.83984375 C3.72257812 11.88269531 3.85921875 12.92554688 4 14 C4.66 14.33 5.32 14.66 6 15 C6 15.66 6 16.32 6 17 C6.99 17.33 7.98 17.66 9 18 C7 20 7 20 4.5625 20.3125 C2 20 2 20 0.390625 18.8125 C-2.36932706 15.21525911 -2.02499794 10.38713833 -2 6 C-1.0625 2.3125 -1.0625 2.3125 0 0 Z " fill="#0D0102" transform="translate(254,318)"/>
<path d="M0 0 C0.81210938 -0.02449219 1.62421875 -0.04898438 2.4609375 -0.07421875 C8.14610336 -0.10155128 13.07841966 0.73155791 17.625 4.375 C18.625 7.125 18.625 7.125 18.625 9.375 C17.99851563 8.95347656 17.37203125 8.53195313 16.7265625 8.09765625 C15.90929687 7.54980469 15.09203125 7.00195312 14.25 6.4375 C13.43789062 5.89222656 12.62578125 5.34695312 11.7890625 4.78515625 C6.21452531 1.15265097 0.101545 1.88446037 -6.375 2.375 C-11.58546856 3.63936409 -14.38535943 5.95479156 -17.25 10.4375 C-17.96769288 11.74490556 -18.67680069 13.05708115 -19.375 14.375 C-20.035 15.365 -20.695 16.355 -21.375 17.375 C-21.375 14.075 -21.375 10.775 -21.375 7.375 C-19.725 7.375 -18.075 7.375 -16.375 7.375 C-16.045 5.725 -15.715 4.075 -15.375 2.375 C-10.16134286 0.2659154 -5.53544061 0.00870352 0 0 Z " fill="#E4BD2D" transform="translate(170.375,238.625)"/>
<path d="M0 0 C0.33 0 0.66 0 1 0 C1 13.53 1 27.06 1 41 C0.67 41 0.34 41 0 41 C-0.33 36.38 -0.66 31.76 -1 27 C-1.66 28.32 -2.32 29.64 -3 31 C-4.1482685 28.703463 -4.11561175 27.41686833 -4.09765625 24.8671875 C-4.09443359 24.06152344 -4.09121094 23.25585938 -4.08789062 22.42578125 C-4.07951172 21.58402344 -4.07113281 20.74226563 -4.0625 19.875 C-4.05798828 19.02550781 -4.05347656 18.17601562 -4.04882812 17.30078125 C-4.03702874 15.20049091 -4.01909306 13.1002367 -4 11 C-3.01 11.495 -3.01 11.495 -2 12 C-0.78306124 9.56612247 -0.68040104 7.58161154 -0.4375 4.875 C-0.31181641 3.50988281 -0.31181641 3.50988281 -0.18359375 2.1171875 C-0.12300781 1.41851562 -0.06242188 0.71984375 0 0 Z " fill="#EEC735" transform="translate(195,241)"/>
<path d="M0 0 C4.95 0 9.9 0 15 0 C19 9.75 19 9.75 19 12 C18.01 11.67 17.02 11.34 16 11 C16 9.68 16 8.36 16 7 C15.34 7 14.68 7 14 7 C13.67 5.68 13.34 4.36 13 3 C9.37 2.67 5.74 2.34 2 2 C2 7.61 2 13.22 2 19 C1.34 19 0.68 19 0 19 C0 12.73 0 6.46 0 0 Z " fill="#E28339" transform="translate(233,263)"/>
<path d="M0 0 C1.3488873 0.00025096 2.69778106 0.00580724 4.04663086 0.01586914 C5.99194702 0.01961548 5.99194702 0.01961548 7.9765625 0.0234375 C9.6380835 0.0325415 11.29960449 0.04164551 13.01147461 0.05102539 C18.27084961 0.07165039 23.53022461 0.09227539 28.94897461 0.11352539 C28.94897461 11.00352539 28.94897461 21.89352539 28.94897461 33.11352539 C28.61897461 33.11352539 28.28897461 33.11352539 27.94897461 33.11352539 C27.94897461 22.55352539 27.94897461 11.99352539 27.94897461 1.11352539 C12.60397461 1.60852539 12.60397461 1.60852539 -3.05102539 2.11352539 C-3.38102539 3.10352539 -3.71102539 4.09352539 -4.05102539 5.11352539 C-4.71102539 5.11352539 -5.37102539 5.11352539 -6.05102539 5.11352539 C-3.64231634 0.13552669 -3.64231634 0.13552669 0 0 Z " fill="#FFF4C0" transform="translate(120.051025390625,292.886474609375)"/>
<path d="M0 0 C4 1 4 1 6 3 C6.1953125 5.6015625 6.1953125 5.6015625 6.125 8.625 C6.10695312 9.62789063 6.08890625 10.63078125 6.0703125 11.6640625 C6.03550781 12.82035156 6.03550781 12.82035156 6 14 C4.02 14 2.04 14 0 14 C0 9.38 0 4.76 0 0 Z " fill="#FEFCF0" transform="translate(216,249)"/>
<path d="M0 0 C2.4375 0.1875 2.4375 0.1875 3.4375 1.1875 C3.57865161 3.85808851 3.47997107 6.51182238 3.4375 9.1875 C-2.3125 10.3125 -2.3125 10.3125 -4.5625 9.1875 C-4.6875 5.8125 -4.6875 5.8125 -4.5625 2.1875 C-2.5625 0.1875 -2.5625 0.1875 0 0 Z " fill="#FA7706" transform="translate(263.5625,321.8125)"/>
<path d="M0 0 C2.42581871 2.42581871 2.96355664 4.07433869 3.09765625 7.48046875 C3.08605469 8.37378906 3.07445312 9.26710937 3.0625 10.1875 C3.05347656 11.08855469 3.04445312 11.98960937 3.03515625 12.91796875 C3.02355469 13.60503906 3.01195312 14.29210937 3 15 C4.98 15 6.96 15 9 15 C9 15.33 9 15.66 9 16 C8.02160156 16.14695313 8.02160156 16.14695313 7.0234375 16.296875 C1.36568892 17.26486738 -2.48422039 18.43491083 -7 22 C-7 20.02 -7 18.04 -7 16 C-5.68 16.33 -4.36 16.66 -3 17 C-3 16.34 -3 15.68 -3 15 C-2.01 15 -1.02 15 0 15 C0 10.05 0 5.1 0 0 Z " fill="#E8C64D" transform="translate(213,225)"/>
<path d="M0 0 C-7.64603669 3.28109976 -14.06447991 4.56685252 -22.35546875 4.390625 C-23.38311844 4.38496521 -24.41076813 4.37930542 -25.46955872 4.37347412 C-28.70937326 4.35131943 -31.94802725 4.30116354 -35.1875 4.25 C-37.40167659 4.22990795 -39.61587074 4.21166196 -41.83007812 4.1953125 C-47.22043922 4.15152382 -52.61013666 4.08482597 -58 4 C-58 3.67 -58 3.34 -58 3 C-56.14036621 2.97812622 -56.14036621 2.97812622 -54.24316406 2.95581055 C-49.59103254 2.89731557 -44.93935946 2.82009103 -40.28759766 2.73754883 C-38.28409329 2.70453819 -36.28050125 2.67643412 -34.27685547 2.65356445 C-19.50518615 2.58499211 -19.50518615 2.58499211 -5.13574219 -0.46557617 C-3 -1 -3 -1 0 0 Z " fill="#FEB10C" transform="translate(207,289)"/>
<path d="M0 0 C1.98 0 3.96 0 6 0 C6 6.27 6 12.54 6 19 C5.67 19 5.34 19 5 19 C4.67 13.72 4.34 8.44 4 3 C3.01 3 2.02 3 1 3 C1.04640625 3.70125 1.0928125 4.4025 1.140625 5.125 C1.38686322 11.59754742 0.97705286 16.69282913 -3 22 C-3.99 22.66 -4.98 23.32 -6 24 C-4.98617067 20.80253827 -3.91647879 17.82961673 -2.4375 14.8125 C-0.34067357 10.11052557 -0.2663411 5.07884919 0 0 Z " fill="#EA8419" transform="translate(216,263)"/>
<path d="M0 0 C0.33 0 0.66 0 1 0 C1.08636719 0.89460938 1.17273438 1.78921875 1.26171875 2.7109375 C2.37204489 12.26585416 4.15454582 21.6074077 12 28 C10.68 27.67 9.36 27.34 8 27 C8 27.66 8 28.32 8 29 C7.34 28.67 6.68 28.34 6 28 C6.33 27.01 6.66 26.02 7 25 C5.35 24.67 3.7 24.34 2 24 C0.18655665 15.92046224 -0.23658921 8.26747851 0 0 Z " fill="#EA8228" transform="translate(202,308)"/>
<path d="M0 0 C0.33 0 0.66 0 1 0 C1 4.62 1 9.24 1 14 C1.99 13.67 2.98 13.34 4 13 C4 11.02 4 9.04 4 7 C6.375 5.9375 6.375 5.9375 9 5 C9.66 5.33 10.32 5.66 11 6 C10.60167969 6.59167969 10.20335938 7.18335938 9.79296875 7.79296875 C6.39814969 12.85025697 6.39814969 12.85025697 3.25 18.0625 C2.8375 18.701875 2.425 19.34125 2 20 C1.34 20 0.68 20 0 20 C0 13.4 0 6.8 0 0 Z " fill="#F3CE3E" transform="translate(102,293)"/>
<path d="M0 0 C0.33 0 0.66 0 1 0 C1 6.6 1 13.2 1 20 C-2.75131023 16.24868977 -5.12948441 13.55397635 -7.8125 9.1875 C-8.41707031 8.21167969 -9.02164063 7.23585938 -9.64453125 6.23046875 C-10.09183594 5.49441406 -10.53914062 4.75835937 -11 4 C-9.09765625 4.34375 -9.09765625 4.34375 -7 5 C-5.96986723 6.64821244 -4.96885372 8.31503702 -4 10 C-3.01 10.33 -2.02 10.66 -1 11 C-0.67 7.37 -0.34 3.74 0 0 Z " fill="#DD8538" transform="translate(261,344)"/>
<path d="M0 0 C0.99 0.33 1.98 0.66 3 1 C2.99214478 2.04341553 2.99214478 2.04341553 2.98413086 3.10791016 C2.96325663 6.28026413 2.95030668 9.45260361 2.9375 12.625 C2.92912109 13.71941406 2.92074219 14.81382812 2.91210938 15.94140625 C2.90888672 17.00488281 2.90566406 18.06835938 2.90234375 19.1640625 C2.89710693 20.13811035 2.89187012 21.1121582 2.88647461 22.11572266 C3.00585494 25.14875321 3.44133276 28.01915268 4 31 C-0.55496827 26.44503173 -0.38692877 18.40351285 -0.6875 12.25 C-0.73455078 11.50878906 -0.78160156 10.76757812 -0.83007812 10.00390625 C-1.02502812 6.44367194 -0.97768508 3.42118622 0 0 Z " fill="#F4CE35" transform="translate(90,235)"/>
<path d="M0 0 C0.33 0 0.66 0 1 0 C1.03738281 1.02480469 1.07476562 2.04960937 1.11328125 3.10546875 C1.17897079 4.46618062 1.24541709 5.82685611 1.3125 7.1875 C1.33505859 7.86103516 1.35761719 8.53457031 1.38085938 9.22851562 C1.61620709 13.61454126 2.35972262 16.47963015 5 20 C7.06954847 21.78344178 7.06954847 21.78344178 9 23 C5.23375329 24.25541557 3.62811066 23.37061958 0 22 C-0.93248069 15.00639481 -1.38955715 8.05785895 -1 1 C-0.67 0.67 -0.34 0.34 0 0 Z " fill="#291801" transform="translate(158,255)"/>
<path d="M0 0 C2.10388569 -0.05402274 4.20816714 -0.09280256 6.3125 -0.125 C8.07013672 -0.15980469 8.07013672 -0.15980469 9.86328125 -0.1953125 C13 0 13 0 16 2 C16 2.66 16 3.32 16 4 C17.32 4.66 18.64 5.32 20 6 C20 6.66 20 7.32 20 8 C19.34 8 18.68 8 18 8 C17.38125 7.175 16.7625 6.35 16.125 5.5 C13.38032732 2.61562841 10.89092684 2.54744019 7 2.4375 C3.06186094 2.59715429 1.3032441 2.81805354 -2.125 4.875 C-2.74375 5.57625 -3.3625 6.2775 -4 7 C-4.66 7.66 -5.32 8.32 -6 9 C-5.25 4.25 -5.25 4.25 -3 2 C-2.01 2 -1.02 2 0 2 C0 1.34 0 0.68 0 0 Z " fill="#D5711F" transform="translate(257,311)"/>
<path d="M0 0 C2.475 0.99 2.475 0.99 5 2 C5.33 1.34 5.66 0.68 6 0 C8.03993514 4.92984325 9.40652968 8.57960425 9 14 C7.68 14 6.36 14 5 14 C5 14.66 5 15.32 5 16 C2.36 16 -0.28 16 -3 16 C-3.66 14.02 -4.32 12.04 -5 10 C-3.5 11.375 -3.5 11.375 -2 13 C-2 13.66 -2 14.32 -2 15 C-0.63875 14.505 -0.63875 14.505 0.75 14 C4 13 4 13 8 13 C5.14299888 5.74772432 5.14299888 5.74772432 0 0 Z " fill="#EA8229" transform="translate(239,289)"/>
<path d="M0 0 C4.13105614 0.60750826 7.43299325 1.81115495 11 4 C11.75 6 11.75 6 12 8 C12.99 9.485 12.99 9.485 14 11 C14.125 14.1875 14.125 14.1875 14 17 C10.17679443 18.42258812 7.08718695 19.24042276 3 19 C5.96687001 17.35173889 8.65626525 16.55728913 12 16 C10.02049056 9.24637956 7.54749133 6.19737898 2 2 C1.34 1.34 0.68 0.68 0 0 Z " fill="#F3CC38" transform="translate(133,220)"/>
<path d="M0 0 C3.0625 0.1875 3.0625 0.1875 5.0625 2.1875 C5.0625 3.5075 5.0625 4.8275 5.0625 6.1875 C1.7625 6.1875 -1.5375 6.1875 -4.9375 6.1875 C-3.87127483 0.24710265 -3.87127483 0.24710265 0 0 Z " fill="#E7E7E7" transform="translate(353.9375,317.8125)"/>
<path d="M0 0 C1.32 0 2.64 0 4 0 C4 0.66 4 1.32 4 2 C4.99 2 5.98 2 7 2 C6.4375 3.875 6.4375 3.875 5 6 C1.5 7.1875 1.5 7.1875 -2 8 C-2.99 8.495 -2.99 8.495 -4 9 C-4.33 7.35 -4.66 5.7 -5 4 C-4.360625 3.71125 -3.72125 3.4225 -3.0625 3.125 C-0.84793921 2.17176549 -0.84793921 2.17176549 0 0 Z " fill="#040202" transform="translate(161,242)"/>
<path d="M0 0 C1.1875 1.5625 1.1875 1.5625 2 4 C1.2655291 5.635867 0.52467601 7.26936275 -0.2578125 8.8828125 C-2.53834398 15.38832862 -1.00771394 23.32389516 0 30 C-3.89885553 26.10114447 -3.21375655 20.92920903 -3.25 15.6875 C-3.270625 14.95337891 -3.29125 14.21925781 -3.3125 13.46289062 C-3.34962176 8.23336311 -2.34734414 4.67615661 0 0 Z " fill="#ECCB41" transform="translate(108,234)"/>
<path d="M0 0 C8.25 0 16.5 0 25 0 C25 0.99 25 1.98 25 3 C24.33613281 2.84144531 23.67226562 2.68289062 22.98828125 2.51953125 C13.66163995 0.89803675 4.0678184 0.67523986 -4 6 C-4.99 6.495 -4.99 6.495 -6 7 C-5.34 5.35 -4.68 3.7 -4 2 C-2.68 2 -1.36 2 0 2 C0 1.34 0 0.68 0 0 Z " fill="#F1CD37" transform="translate(108,217)"/>
<path d="M0 0 C2.64 0 5.28 0 8 0 C8 0.66 8 1.32 8 2 C7.01 2.495 7.01 2.495 6 3 C7.65 3.33 9.3 3.66 11 4 C10.67 4.66 10.34 5.32 10 6 C8.0390625 6.484375 8.0390625 6.484375 5.625 6.75 C4.83351563 6.84796875 4.04203125 6.9459375 3.2265625 7.046875 C1 7 1 7 -2 5 C-0.68 4.34 0.64 3.68 2 3 C1.34 2.67 0.68 2.34 0 2 C0 1.34 0 0.68 0 0 Z " fill="#300D02" transform="translate(260,333)"/>
<path d="M0 0 C7.57142857 1.85714286 7.57142857 1.85714286 10 5 C8.6875 6.5 8.6875 6.5 7 8 C6.01 8 5.02 8 4 8 C3.67 7.34 3.34 6.68 3 6 C0.98330173 4.86649466 0.98330173 4.86649466 -1 4 C-0.67 2.68 -0.34 1.36 0 0 Z " fill="#050203" transform="translate(174,242)"/>
<path d="M0 0 C0.66 0.33 1.32 0.66 2 1 C1.43761722 4.93667948 0.56264345 7.90715445 -2 11 C-5.1875 11.3125 -5.1875 11.3125 -8 11 C-7.67 10.34 -7.34 9.68 -7 9 C-6.34 9 -5.68 9 -5 9 C-5 8.34 -5 7.68 -5 7 C-4.34 6.67 -3.68 6.34 -3 6 C-2.29788106 4.34795544 -1.63028587 2.68076231 -1 1 C-0.67 0.67 -0.34 0.34 0 0 Z " fill="#070103" transform="translate(273,326)"/>
<path d="M0 0 C0.66 0.33 1.32 0.66 2 1 C2 1.99 2 2.98 2 4 C0.68 4 -0.64 4 -2 4 C-1.979375 4.804375 -1.95875 5.60875 -1.9375 6.4375 C-2 9 -2 9 -3 10 C-3.07205511 11.68608966 -3.08386068 13.37500659 -3.0625 15.0625 C-3.05347656 15.98160156 -3.04445312 16.90070313 -3.03515625 17.84765625 C-3.02355469 18.55792969 -3.01195312 19.26820313 -3 20 C-5.64824509 17.35175491 -5.35941487 15.94296725 -5.4375 12.25 C-5.39253247 8.09300138 -5.22751931 5.46430037 -2.5 2.25 C-1.675 1.5075 -0.85 0.765 0 0 Z " fill="#300900" transform="translate(256,314)"/>
<path d="M0 0 C0.66 0.33 1.32 0.66 2 1 C2 1.66 2 2.32 2 3 C2.66 3.66 3.32 4.32 4 5 C2.35 5 0.7 5 -1 5 C-2.70084819 10.32932432 -3.52013969 15.43109483 -4 21 C-4.33 21 -4.66 21 -5 21 C-5.31335705 13.93205776 -5.53458302 8.25349303 -2 2 C-1.34 1.34 -0.68 0.68 0 0 Z " fill="#E78734" transform="translate(219,297)"/>
<path d="M0 0 C0.99 0 1.98 0 3 0 C3 0.99 3 1.98 3 3 C2.236875 3.7425 1.47375 4.485 0.6875 5.25 C-2.429535 8.43952418 -3.46165121 10.87074797 -5 15 C-5.33 15 -5.66 15 -6 15 C-6 11.7 -6 8.4 -6 5 C-4.35 5 -2.7 5 -1 5 C-0.67 3.35 -0.34 1.7 0 0 Z " fill="#EAC121" transform="translate(155,241)"/>
<path d="M0 0 C0.7425 0.433125 0.7425 0.433125 1.5 0.875 C4.91752035 2.41288416 8.3506202 3.14847805 12 4 C12 4.66 12 5.32 12 6 C14.64 6 17.28 6 20 6 C20 6.33 20 6.66 20 7 C8.1789608 7.68860423 8.1789608 7.68860423 4.375 5.1875 C2 3 2 3 0 0 Z " fill="#EA8022" transform="translate(155,336)"/>
<path d="M0 0 C0.91954398 3.08653135 1.05124872 5.72780796 0.9375 8.9375 C0.90943528 12.75430163 0.97106553 15.65225813 3 19 C4.30518475 20.03647024 5.63461347 21.04422943 7 22 C7 22.66 7 23.32 7 24 C3.97209134 23.09981094 2.32296997 22.41077505 0.34765625 19.8984375 C-1.37414773 16.19531125 -1.32969574 13.38096738 -1.25 9.3125 C-1.24484375 8.63638672 -1.2396875 7.96027344 -1.234375 7.26367188 C-1.15552736 2.31105473 -1.15552736 2.31105473 0 0 Z " fill="#DDBA36" transform="translate(160,253)"/>
<path d="M0 0 C0.99 0.33 1.98 0.66 3 1 C9.81574013 2.75332445 17.02040004 2.15246699 24 2 C22 4 22 4 19.93701172 4.22705078 C18.69588623 4.21134033 18.69588623 4.21134033 17.4296875 4.1953125 C16.53378906 4.18886719 15.63789062 4.18242187 14.71484375 4.17578125 C13.77769531 4.15902344 12.84054688 4.14226562 11.875 4.125 C10.93011719 4.11597656 9.98523438 4.10695313 9.01171875 4.09765625 C6.67422708 4.07404522 4.33723877 4.04111516 2 4 C2 3.34 2 2.68 2 2 C1.34 2 0.68 2 0 2 C0 1.34 0 0.68 0 0 Z " fill="#F0CD3F" transform="translate(106,279)"/>
<path d="M0 0 C0.33 0 0.66 0 1 0 C1.03738281 0.80824219 1.07476562 1.61648438 1.11328125 2.44921875 C1.17902344 3.51785156 1.24476563 4.58648437 1.3125 5.6875 C1.37050781 6.74324219 1.42851562 7.79898437 1.48828125 8.88671875 C2.09047882 12.55047039 3.34737457 15.34737457 6 18 C6.04063832 19.66617115 6.042721 21.33388095 6 23 C2.46381539 19.93530667 1.19986515 17.49949431 0 13 C-0.1953125 9.5703125 -0.1953125 9.5703125 -0.125 6.125 C-0.10695312 4.97257812 -0.08890625 3.82015625 -0.0703125 2.6328125 C-0.04710937 1.76398438 -0.02390625 0.89515625 0 0 Z " fill="#3E2902" transform="translate(149,256)"/>
<path d="M0 0 C7.38461538 -0.36923077 7.38461538 -0.36923077 10.5 1.5 C10.995 1.995 11.49 2.49 12 3 C8.53058454 2.54177532 5.32604951 2.10868317 2 1 C1.896875 1.94875 1.79375 2.8975 1.6875 3.875 C1 7 1 7 -2 9 C-2 7.35 -2 5.7 -2 4 C-1.34 4 -0.68 4 0 4 C0 2.68 0 1.36 0 0 Z " fill="#F2C929" transform="translate(131,257)"/>
<path d="M0 0 C0.33 0 0.66 0 1 0 C1.25 6.625 1.25 6.625 -1 10 C-2.37562854 8.71034824 -3.70766393 7.37310707 -5 6 C-5 5.34 -5 4.68 -5 4 C-4.34 3.67 -3.68 3.34 -3 3 C-2.484375 2.484375 -1.96875 1.96875 -1.4375 1.4375 C-0.963125 0.963125 -0.48875 0.48875 0 0 Z " fill="#F5C714" transform="translate(194,244)"/>
<path d="M0 0 C0.66 0.33 1.32 0.66 2 1 C2.62663185 11.91383812 2.62663185 11.91383812 0.125 16.25 C-2 18 -2 18 -4 18 C-3.1875 15.5625 -3.1875 15.5625 -2 13 C-1.01 12.67 -0.02 12.34 1 12 C0.67 8.04 0.34 4.08 0 0 Z " fill="#3E0F01" transform="translate(275,319)"/>
<path d="M0 0 C0 4.62 0 9.24 0 14 C-0.66 13.67 -1.32 13.34 -2 13 C-2 9.37 -2 5.74 -2 2 C-3.32 1.67 -4.64 1.34 -6 1 C-4 0 -4 0 0 0 Z " fill="#EDC955" transform="translate(216,249)"/>
<path d="M0 0 C0.66 0 1.32 0 2 0 C1.34 2.31 0.68 4.62 0 7 C-3.3 7 -6.6 7 -10 7 C-10.33 6.01 -10.66 5.02 -11 4 C-10.34 4 -9.68 4 -9 4 C-9 4.66 -9 5.32 -9 6 C-4.54568828 4.81218354 -2.55176136 3.82764204 0 0 Z " fill="#250300" transform="translate(265,275)"/>
<path d="M0 0 C5.75 0.75 5.75 0.75 8 3 C6.9275 3.20625 5.855 3.4125 4.75 3.625 C0.29408826 5.2588343 -0.77777608 6.91110799 -3 11 C-3.66 10.67 -4.32 10.34 -5 10 C-3.99088542 8.27473958 -2.98177083 6.54947917 -1.97265625 4.82421875 C-0.86098753 2.86180445 -0.86098753 2.86180445 0 0 Z " fill="#FEF5BB" transform="translate(133,258)"/>
<path d="M0 0 C3.3 0 6.6 0 10 0 C10 0.99 10 1.98 10 3 C6.7 3 3.4 3 0 3 C0 2.01 0 1.02 0 0 Z " fill="#0A0103" transform="translate(258,314)"/>
<path d="M0 0 C0.66 0.66 1.32 1.32 2 2 C1.24074219 1.96519531 0.48148438 1.93039063 -0.30078125 1.89453125 C-1.29464844 1.86746094 -2.28851563 1.84039062 -3.3125 1.8125 C-4.29863281 1.77769531 -5.28476563 1.74289063 -6.30078125 1.70703125 C-9.41453181 2.0449926 -10.00960006 2.71832202 -12 5 C-14.1875 4.6875 -14.1875 4.6875 -16 4 C-11.49887537 -0.96675821 -6.29676697 -0.87201604 0 0 Z " fill="#F0CB3D" transform="translate(125,229)"/>
<path d="M0 0 C0.33 0 0.66 0 1 0 C1.48539326 7.28089888 1.48539326 7.28089888 -0.6875 10.5 C-3.42985041 12.27882189 -4.7940807 12.59056408 -8 12 C-8.66 11.01 -9.32 10.02 -10 9 C-7.03 9 -4.06 9 -1 9 C-0.67 6.03 -0.34 3.06 0 0 Z " fill="#CE7227" transform="translate(269,322)"/>
<path d="M0 0 C1.90625 0.34765625 1.90625 0.34765625 4 1 C5.01866229 2.65532623 6.01810813 4.32260138 7 6 C9.06700655 7.32793606 9.06700655 7.32793606 11 8 C10.67 9.32 10.34 10.64 10 12 C9.34 10.68 8.68 9.36 8 8 C7.01 8 6.02 8 5 8 C3.61328125 6.25 3.61328125 6.25 2.3125 4 C1.87550781 3.2575 1.43851563 2.515 0.98828125 1.75 C0.66214844 1.1725 0.33601562 0.595 0 0 Z " fill="#ED8020" transform="translate(250,348)"/>
<path d="M0 0 C2.0625 1.5625 2.0625 1.5625 4 4 C3.75 7.75 3.75 7.75 3 11 C2.01 10.67 1.02 10.34 0 10 C0 6.7 0 3.4 0 0 Z " fill="#D9782B" transform="translate(277,321)"/>
<path d="M0 0 C4.875 4.625 4.875 4.625 6 8 C5.4225 7.814375 4.845 7.62875 4.25 7.4375 C1.69606643 6.7761831 1.69606643 6.7761831 -2 8 C-1.34 5.36 -0.68 2.72 0 0 Z " fill="#DC8134" transform="translate(271,264)"/>
<path d="M0 0 C-1.09068668 3.77545388 -1.9083091 6.47043472 -5 9 C-5.99 8.67 -6.98 8.34 -8 8 C-7.34 8 -6.68 8 -6 8 C-5.896875 7.236875 -5.79375 6.47375 -5.6875 5.6875 C-4.83195622 2.34310158 -3.70341243 0 0 0 Z " fill="#EB7D1F" transform="translate(237,320)"/>
<path d="M0 0 C3.96 0 7.92 0 12 0 C12 0.99 12 1.98 12 3 C8.04 2.67 4.08 2.34 0 2 C0 1.34 0 0.68 0 0 Z " fill="#F5C923" transform="translate(196,282)"/>
<path d="M0 0 C0.66 0 1.32 0 2 0 C1.40075776 4.19469571 0.42500059 8.00999834 -1 12 C-1.33 12 -1.66 12 -2 12 C-2.33 9.36 -2.66 6.72 -3 4 C-2.34 4 -1.68 4 -1 4 C-0.67 2.68 -0.34 1.36 0 0 Z " fill="#EE7C1D" transform="translate(205,294)"/>
<path d="M0 0 C0.556875 0.226875 1.11375 0.45375 1.6875 0.6875 C0.718125 1.14125 -0.25125 1.595 -1.25 2.0625 C-4.38329582 3.34536221 -4.38329582 3.34536221 -5.3125 5.6875 C-6.6325 5.6875 -7.9525 5.6875 -9.3125 5.6875 C-9.9725 7.0075 -10.6325 8.3275 -11.3125 9.6875 C-11.3125 6.6875 -11.3125 6.6875 -9.625 4.6875 C-3.63682432 -0.49146275 -3.63682432 -0.49146275 0 0 Z " fill="#EFCD3F" transform="translate(98.3125,213.3125)"/>
<path d="M0 0 C2.77395848 1.38697924 3.53151207 3.57351074 4.98046875 6.2109375 C6.15887287 8.2787884 7.51418146 10.14272683 9 12 C7.35 12 5.7 12 4 12 C2.18757677 7.9811485 0.66498383 4.38889325 0 0 Z " fill="#E3BB2C" transform="translate(149,271)"/>
<path d="M0 0 C1.485 0.99 1.485 0.99 3 2 C3.61854424 6.63908179 2.66836554 9.21981549 0 13 C-1.36421031 10.27157939 -0.87807211 8.39046682 -0.5625 5.375 C-0.40974609 3.87066406 -0.40974609 3.87066406 -0.25390625 2.3359375 C-0.17011719 1.56507813 -0.08632812 0.79421875 0 0 Z " fill="#DCB325" transform="translate(192,259)"/>
<path d="M0 0 C1.87365234 -0.02126953 1.87365234 -0.02126953 3.78515625 -0.04296875 C6.9375 0.1875 6.9375 0.1875 8.9375 2.1875 C8.18984375 2.17589844 7.4421875 2.16429687 6.671875 2.15234375 C5.68703125 2.14332031 4.7021875 2.13429687 3.6875 2.125 C2.71296875 2.11339844 1.7384375 2.10179687 0.734375 2.08984375 C-1.99163169 2.08618849 -1.99163169 2.08618849 -4.28125 2.75 C-6.0625 3.1875 -6.0625 3.1875 -8.3125 2.25 C-8.89 1.899375 -9.4675 1.54875 -10.0625 1.1875 C-6.55538381 0.01846127 -3.69467614 0.01910381 0 0 Z " fill="#291C01" transform="translate(171.0625,239.8125)"/>
<path d="M0 0 C0.33 0 0.66 0 1 0 C0.67 3.3 0.34 6.6 0 10 C-3.62326739 11.2077558 -4.64146369 10.54311128 -8 9 C-8 8.67 -8 8.34 -8 8 C-6.02 7.67 -4.04 7.34 -2 7 C-1.34 4.69 -0.68 2.38 0 0 Z " fill="#F8C910" transform="translate(148,250)"/>
<path d="M0 0 C1.1875 1.5625 1.1875 1.5625 2 4 C0.625 7.75 0.625 7.75 -1 11 C-1.33 11 -1.66 11 -2 11 C-2.25 3.375 -2.25 3.375 0 0 Z " fill="#F6CC29" transform="translate(108,234)"/>
<path d="M0 0 C2.0625 1.75 2.0625 1.75 4 4 C3.75 6.25 3.75 6.25 3 8 C1.68 7.34 0.36 6.68 -1 6 C-0.67 4.02 -0.34 2.04 0 0 Z " fill="#EA8229" transform="translate(277,272)"/>
<path d="M0 0 C1.79068573 2.6860286 2.66055791 4.6626589 3.625 7.6875 C3.88539063 8.49574219 4.14578125 9.30398438 4.4140625 10.13671875 C4.60742188 10.75160156 4.80078125 11.36648438 5 12 C4.01 11.67 3.02 11.34 2 11 C2 9.68 2 8.36 2 7 C1.34 7 0.68 7 0 7 C0 4.69 0 2.38 0 0 Z " fill="#CF7124" transform="translate(247,263)"/>
<path d="M0 0 C0.33 0 0.66 0 1 0 C1.33 4.95 1.66 9.9 2 15 C1.34 14.67 0.68 14.34 0 14 C0 12.02 0 10.04 0 8 C-0.66 8 -1.32 8 -2 8 C-1.33333333 5.33333333 -0.66666667 2.66666667 0 0 Z " fill="#EFC438" transform="translate(148,256)"/>
<path d="M0 0 C3.63 0.33 7.26 0.66 11 1 C11 1.66 11 2.32 11 3 C8.69 3.66 6.38 4.32 4 5 C4.33 4.34 4.66 3.68 5 3 C2.525 2.01 2.525 2.01 0 1 C0 0.67 0 0.34 0 0 Z " fill="#DF822D" transform="translate(258,339)"/>
<path d="M0 0 C3.465 1.485 3.465 1.485 7 3 C7 3.66 7 4.32 7 5 C7.66 5 8.32 5 9 5 C9 5.66 9 6.32 9 7 C7.68 7.33 6.36 7.66 5 8 C5 7.01 5 6.02 5 5 C4.34 4.67 3.68 4.34 3 4 C3 3.34 3 2.68 3 2 C2.01 2 1.02 2 0 2 C0 1.34 0 0.68 0 0 Z " fill="#EC7613" transform="translate(251,335)"/>
<path d="M0 0 C0 0.66 0 1.32 0 2 C-0.99 2.66 -1.98 3.32 -3 4 C-3 4.99 -3 5.98 -3 7 C-4.65 6.67 -6.3 6.34 -8 6 C-3.38461538 0 -3.38461538 0 0 0 Z " fill="#FEF3DB" transform="translate(217,289)"/>
<path d="M0 0 C3 3.75 3 3.75 3 6 C6.3 6 9.6 6 13 6 C13 6.33 13 6.66 13 7 C11.20866022 7.05391993 9.41686101 7.09275571 7.625 7.125 C6.62726563 7.14820313 5.62953125 7.17140625 4.6015625 7.1953125 C2 7 2 7 0 5 C-0.125 2.375 -0.125 2.375 0 0 Z " fill="#D37224" transform="translate(252,276)"/>
<path d="M0 0 C1.32 0.33 2.64 0.66 4 1 C3.5205537 5.21912747 2.83374881 7.79663178 0 11 C0 9.35 0 7.7 0 6 C0.66 6 1.32 6 2 6 C1.34 4.02 0.68 2.04 0 0 Z " fill="#FEFACF" transform="translate(141,261)"/>
<path d="M0 0 C1.9375 0.75 1.9375 0.75 4 2 C4.75 4.125 4.75 4.125 5 6 C3.35 5.67 1.7 5.34 0 5 C0 3.35 0 1.7 0 0 Z " fill="#E9EAE8" transform="translate(217,249)"/>
<path d="M0 0 C0.33 0.66 0.66 1.32 1 2 C-2.3 2.33 -5.6 2.66 -9 3 C-8.67 2.01 -8.34 1.02 -8 0 C-5.09660535 -1.45169732 -3.09125158 -0.72348441 0 0 Z " fill="#D27326" transform="translate(268,319)"/>
<path d="M0 0 C0.75 1.625 0.75 1.625 1 4 C-0.9375 7.25 -0.9375 7.25 -3 10 C-4.32 9.67 -5.64 9.34 -7 9 C-6.21625 8.2575 -5.4325 7.515 -4.625 6.75 C-2.43495469 4.45566682 -1.17268614 2.87841142 0 0 Z " fill="#E2B92D" transform="translate(190,273)"/>
<path d="M0 0 C1.65 0 3.3 0 5 0 C2.11964908 2.24027294 -0.84866512 4.16172132 -4 6 C-4 4.68 -4 3.36 -4 2 C-2.68 2 -1.36 2 0 2 C0 1.34 0 0.68 0 0 Z " fill="#E8852E" transform="translate(214,287)"/>
<path d="M0 0 C2.125 0.375 2.125 0.375 4 1 C2.35830472 3.02054804 0.69088222 5.02043058 -1 7 C-1.33 7 -1.66 7 -2 7 C-2.125 4.625 -2.125 4.625 -2 2 C-1.34 1.34 -0.68 0.68 0 0 Z " fill="#221000" transform="translate(161,248)"/>
<path d="M0 0 C2.2477975 2.05233685 3.0022242 3.00667261 4 6 C4.99 6.66 5.98 7.32 7 8 C5.02 8 3.04 8 1 8 C0.67 5.36 0.34 2.72 0 0 Z " fill="#F2CB2E" transform="translate(129,232)"/>
<path d="M0 0 C0.33 0 0.66 0 1 0 C1 2.31 1 4.62 1 7 C-0.32 7 -1.64 7 -3 7 C-1.125 1.125 -1.125 1.125 0 0 Z " fill="#F8C71B" transform="translate(194,267)"/>
<path d="M0 0 C0 0.99 0 1.98 0 3 C-1.75 4.75 -1.75 4.75 -4 6 C-5.32 5.67 -6.64 5.34 -8 5 C-4.04 2.525 -4.04 2.525 0 0 Z " fill="#EF8224" transform="translate(245,331)"/>
<path d="M0 0 C3.3 0 6.6 0 10 0 C10 0.33 10 0.66 10 1 C7.03 1 4.06 1 1 1 C0.67 1.99 0.34 2.98 0 4 C-0.66 4 -1.32 4 -2 4 C-1.34 2.68 -0.68 1.36 0 0 Z " fill="#FEF9D5" transform="translate(116,294)"/>
<path d="M0 0 C0.33 0 0.66 0 1 0 C1.17942163 3.94727588 1.09350689 6.5980513 -1 10 C-1.66 10 -2.32 10 -3 10 C-2.01 6.7 -1.02 3.4 0 0 Z " fill="#D37022" transform="translate(268,272)"/>
</svg>
